<svg xmlns="http://www.w3.org/2000/svg" xmlns:xlink="http://www.w3.org/1999/xlink" viewBox="0 0 1920 1080">
    <defs>
        <style>
            .cls-1 {
                fill: none;
            }

            .cls-2 {
                isolation: isolate;
            }

            .cls-12,
            .cls-3,
            .cls-5 {
                fill: #030347;
            }

            .cls-4 {
                fill: #fff;
            }

            .cls-13,
            .cls-18,
            .cls-23,
            .cls-5,
            .cls-6,
            .cls-7 {
                fill-rule: evenodd;
            }

            .cls-13,
            .cls-18,
            .cls-23,
            .cls-6 {
                opacity: 0.7;
            }

            .cls-6 {
                fill: url(#New_Gradient_Swatch_1);
            }

            .cls-7 {
                fill: #05054c;
            }

            .cls-8 {
                clip-path: url(#clip-path);
            }

            .cls-9 {
                fill: url(#New_Gradient_Swatch_1-2);
            }

            .cls-10 {
                clip-path: url(#clip-path-2);
            }

            .cls-11 {
                fill: url(#New_Gradient_Swatch_1-3);
            }

            .cls-12 {
                opacity: 0.4;
                mix-blend-mode: multiply;
            }

            .cls-13 {
                fill: url(#New_Gradient_Swatch_1-4);
            }

            .cls-14 {
                clip-path: url(#clip-path-3);
            }

            .cls-15 {
                fill: url(#New_Gradient_Swatch_1-5);
            }

            .cls-16 {
                clip-path: url(#clip-path-4);
            }

            .cls-17 {
                fill: url(#New_Gradient_Swatch_1-6);
            }

            .cls-18 {
                fill: url(#New_Gradient_Swatch_1-7);
            }

            .cls-19 {
                clip-path: url(#clip-path-5);
            }

            .cls-20 {
                fill: url(#New_Gradient_Swatch_1-8);
            }

            .cls-21 {
                clip-path: url(#clip-path-6);
            }

            .cls-22 {
                fill: url(#New_Gradient_Swatch_1-9);
            }

            .cls-23 {
                fill: url(#New_Gradient_Swatch_1-10);
            }

            .cls-24 {
                clip-path: url(#clip-path-7);
            }

            .cls-25 {
                fill: url(#New_Gradient_Swatch_1-11);
            }

            .cls-26 {
                clip-path: url(#clip-path-8);
            }

            .cls-27 {
                fill: url(#New_Gradient_Swatch_1-12);
            }
        </style>
        <linearGradient id="New_Gradient_Swatch_1" x1="283.69" y1="396.69" x2="370.34" y2="396.69"
            gradientUnits="userSpaceOnUse">
            <stop offset="0" stop-color="#a42e9a" />
            <stop offset="0.33" stop-color="#902ccc" />
            <stop offset="0.66" stop-color="#5951f6" />
            <stop offset="1" stop-color="#1db3f9" />
        </linearGradient>
        <clipPath id="clip-path">
            <path class="cls-1"
                d="M291,405.93a1.66,1.66,0,1,1,0-3.32h2.78a34.15,34.15,0,0,1-.52-5.93,33.23,33.23,0,0,1,.33-4.7H291a1.66,1.66,0,1,1,0-3.32h3.22a33.76,33.76,0,1,1,.33,17.27Zm22.12-33.29a1,1,0,0,1,1.38.37,1,1,0,0,1-1.75,1,1,1,0,0,1,.37-1.37Zm-13.88,24a1,1,0,1,1,1,1,1,1,0,0,1-1-1Zm13.88,24a1,1,0,0,1-.37-1.38,1,1,0,1,1,.37,1.38Zm27.76,0a1,1,0,1,1,.37-1.38,1,1,0,0,1-.37,1.38Zm13.88-24a1,1,0,1,1-1-1,1,1,0,0,1,1,1Zm-13.88-24a1,1,0,1,1-1.38.37,1,1,0,0,1,1.38-.37ZM328.56,384a12.72,12.72,0,0,1,7.51,3.66,13,13,0,0,1,1.19,1.37l6.85-4a1.54,1.54,0,1,1,1.54,2.66l-6.86,3.95a12.77,12.77,0,0,1,0,10.05l6.86,4a1.54,1.54,0,1,1-1.54,2.66l-6.85-4a13,13,0,0,1-1.19,1.37,12.77,12.77,0,0,1-7.51,3.66v7.91a1.54,1.54,0,1,1-3.08,0v-7.91a12.8,12.8,0,0,1-7.51-3.66,13,13,0,0,1-1.19-1.37l-6.85,4a1.54,1.54,0,0,1-1.54-2.66l6.86-4a12.77,12.77,0,0,1,0-10.05l-6.86-3.95a1.54,1.54,0,0,1,1.54-2.66l6.85,4a13,13,0,0,1,1.19-1.37,12.74,12.74,0,0,1,7.51-3.66v-7.91a1.54,1.54,0,0,1,3.08,0V384Zm3,7.71a1.11,1.11,0,0,0-1.11,1.11,1.13,1.13,0,0,0,.29.75l-2.23,3.58a1.12,1.12,0,0,0-1.13.23l-1.45-.93a1,1,0,0,0,0-.24,1.11,1.11,0,1,0-2.22,0,1.06,1.06,0,0,0,.33.8l-1.32,2.49a1.07,1.07,0,0,0-.25,0,1.13,1.13,0,1,0,0,2.25,1.14,1.14,0,0,0,1.14-1.12,1.12,1.12,0,0,0-.32-.79l1.32-2.51.24,0a1.11,1.11,0,0,0,.78-.33l1.43.93a1.26,1.26,0,0,0,0,.28,1.13,1.13,0,0,0,1.11,1.12,1.12,1.12,0,0,0,1.12-1.11,1.09,1.09,0,0,0-.24-.69l2.26-3.62a1.54,1.54,0,0,0,.3,0,1.12,1.12,0,0,0,0-2.23m2.32-1.87a9.73,9.73,0,1,0,2.84,6.87,9.7,9.7,0,0,0-2.84-6.87Zm-36.71,12.8H300a1.66,1.66,0,1,1,0,3.32H298a30.42,30.42,0,1,0-.36-17.27H300a1.66,1.66,0,1,1,0,3.32h-3a30.72,30.72,0,0,0,.22,10.63Z" />
        </clipPath>
        <linearGradient id="New_Gradient_Swatch_1-2" x1="360.77" y1="362.18" x2="289.4" y2="431.3"
            xlink:href="#New_Gradient_Swatch_1" />
        <clipPath id="clip-path-2">
            <path class="cls-1"
                d="M326.69,65.46A154.09,154.09,0,0,0,172.6,219.55a66.28,66.28,0,0,1,77.05,0,66.27,66.27,0,0,1,77,0,66.28,66.28,0,0,1,77.05,0,66.27,66.27,0,0,1,77,0A154.09,154.09,0,0,0,326.69,65.46Z" />
        </clipPath>
        <linearGradient id="New_Gradient_Swatch_1-3" x1="451.69" y1="22.71" x2="203.76" y2="262.82"
            xlink:href="#New_Gradient_Swatch_1" />
        <linearGradient id="New_Gradient_Swatch_1-4" x1="820.64" y1="640.36" x2="907.29" y2="640.36"
            xlink:href="#New_Gradient_Swatch_1" />
        <clipPath id="clip-path-3">
            <path class="cls-1"
                d="M828,649.6a1.67,1.67,0,0,1,0-3.33h2.78a33.94,33.94,0,0,1-.52-5.92,33,33,0,0,1,.33-4.7H828a1.67,1.67,0,0,1,0-3.33h3.22a33.71,33.71,0,1,1,.33,17.28Zm22.12-33.29a1,1,0,1,1-.36,1.37,1,1,0,0,1,.36-1.37Zm-13.88,24a1,1,0,0,1,1-1,1,1,0,1,1-1,1Zm13.88,24a1,1,0,0,1-.36-1.38,1,1,0,0,1,1.37-.37,1,1,0,1,1-1,1.75Zm27.76,0a1,1,0,1,1,.37-1.38,1,1,0,0,1-.37,1.38Zm13.88-24a1,1,0,1,1-1-1,1,1,0,0,1,1,1Zm-13.88-24a1,1,0,1,1-1.37.36,1,1,0,0,1,1.37-.36Zm-12.34,11.33A12.72,12.72,0,0,1,873,631.3a11.83,11.83,0,0,1,1.19,1.36l6.85-3.95a1.53,1.53,0,1,1,1.54,2.65l-6.85,4a12.89,12.89,0,0,1,0,10l6.85,4a1.53,1.53,0,1,1-1.54,2.65l-6.85-4a12.8,12.8,0,0,1-8.7,5V661a1.54,1.54,0,1,1-3.07,0v-7.92a12.82,12.82,0,0,1-7.52-3.65,14,14,0,0,1-1.18-1.37l-6.86,4a1.53,1.53,0,1,1-1.53-2.65l6.85-4a12.89,12.89,0,0,1,0-10l-6.85-4a1.53,1.53,0,0,1,1.53-2.65l6.86,3.95a12.8,12.8,0,0,1,8.7-5v-7.92a1.54,1.54,0,1,1,3.07,0v7.92Zm3,7.71a1.1,1.1,0,0,0-.82,1.86l-2.24,3.58a1.1,1.1,0,0,0-1.12.23l-1.46-.94a.85.85,0,0,0,0-.23,1.11,1.11,0,0,0-2.22,0,1.14,1.14,0,0,0,.33.8l-1.32,2.5a1.07,1.07,0,0,0-.25,0,1.12,1.12,0,1,0,1.11,1.13,1.1,1.1,0,0,0-.32-.79l1.33-2.51a.85.85,0,0,0,.23,0,1.07,1.07,0,0,0,.78-.33l1.44.92a1,1,0,0,0,0,.29,1.11,1.11,0,0,0,2.22,0,1.14,1.14,0,0,0-.23-.69l2.26-3.63a.92.92,0,0,0,.29,0,1.11,1.11,0,0,0,0-2.22m2.32-1.88a9.72,9.72,0,1,0,2.85,6.88,9.7,9.7,0,0,0-2.85-6.88Zm-36.71,12.8h2.77a1.67,1.67,0,1,1,0,3.33H835a30.37,30.37,0,1,0-.37-17.28h2.28a1.67,1.67,0,1,1,0,3.33h-3a30.66,30.66,0,0,0,.22,10.62Z" />
        </clipPath>
        <linearGradient id="New_Gradient_Swatch_1-5" x1="897.72" y1="605.85" x2="826.36" y2="674.96"
            xlink:href="#New_Gradient_Swatch_1" />
        <clipPath id="clip-path-4">
            <path class="cls-1"
                d="M863.65,309.13A154.09,154.09,0,0,0,709.56,463.22a66.27,66.27,0,0,1,77,0,66.28,66.28,0,0,1,77,0,66.27,66.27,0,0,1,77,0,66.27,66.27,0,0,1,77,0A154.08,154.08,0,0,0,863.65,309.13Z" />
        </clipPath>
        <linearGradient id="New_Gradient_Swatch_1-6" x1="988.65" y1="266.38" x2="740.72" y2="506.49"
            xlink:href="#New_Gradient_Swatch_1" />
        <linearGradient id="New_Gradient_Swatch_1-7" x1="1203.8" y1="274.16" x2="1290.45" y2="274.16"
            xlink:href="#New_Gradient_Swatch_1" />
        <clipPath id="clip-path-5">
            <path class="cls-1"
                d="M1211.14,283.4a1.67,1.67,0,1,1,0-3.33h2.77a34,34,0,0,1-.52-5.93,34.52,34.52,0,0,1,.33-4.69h-2.58a1.67,1.67,0,1,1,0-3.33h3.21a33.71,33.71,0,1,1,.33,17.28Zm22.12-33.3a1,1,0,0,1,1.37.37,1,1,0,0,1-.37,1.38,1,1,0,0,1-1-1.75Zm-13.88,24a1,1,0,1,1,1,1,1,1,0,0,1-1-1Zm13.88,24a1,1,0,1,1,1.37-.37,1,1,0,0,1-1.37.37Zm27.75,0a1,1,0,1,1,.37-1.37,1,1,0,0,1-.37,1.37Zm13.88-24a1,1,0,1,1-1-1,1,1,0,0,1,1,1Zm-13.88-24a1,1,0,1,1-1.37.37,1,1,0,0,1,1.37-.37Zm-12.34,11.34a12.8,12.8,0,0,1,8.7,5l6.85-4a1.54,1.54,0,0,1,2.1.56,1.53,1.53,0,0,1-.56,2.1l-6.85,4a12.89,12.89,0,0,1,0,10.05l6.85,4a1.53,1.53,0,1,1-1.54,2.65l-6.85-3.95a11.83,11.83,0,0,1-1.19,1.36,12.72,12.72,0,0,1-7.51,3.66v7.91a1.54,1.54,0,1,1-3.07,0v-7.91a12.72,12.72,0,0,1-7.51-3.66,11.83,11.83,0,0,1-1.19-1.36l-6.86,3.95a1.53,1.53,0,1,1-1.53-2.65l6.85-4a12.89,12.89,0,0,1,0-10.05l-6.85-4a1.53,1.53,0,0,1,1.53-2.66l6.86,4a12.8,12.8,0,0,1,8.7-5v-7.92a1.54,1.54,0,1,1,3.07,0v7.92Zm3,7.71a1.1,1.1,0,0,0-1.11,1.11,1.08,1.08,0,0,0,.29.74l-2.24,3.59a1.1,1.1,0,0,0-1.12.23l-1.46-.94a1,1,0,0,0,0-.24,1.11,1.11,0,1,0-2.22,0,1.14,1.14,0,0,0,.33.8l-1.32,2.5a.73.73,0,0,0-.25,0,1.13,1.13,0,1,0,0,2.25,1.12,1.12,0,0,0,1.13-1.11,1.14,1.14,0,0,0-.32-.8l1.33-2.5a.85.85,0,0,0,.23,0,1.07,1.07,0,0,0,.78-.33l1.44.92a.9.9,0,0,0,0,.28,1.11,1.11,0,1,0,2.22,0,1.12,1.12,0,0,0-.23-.68l2.26-3.63a.92.92,0,0,0,.29,0,1.11,1.11,0,0,0,0-2.22m2.32-1.88a9.72,9.72,0,1,0,2.85,6.87,9.7,9.7,0,0,0-2.85-6.87Zm-36.71,12.8h2.78a1.67,1.67,0,0,1,0,3.33h-1.92a30.37,30.37,0,1,0-.37-17.28h2.29a1.67,1.67,0,0,1,0,3.33h-3a31.57,31.57,0,0,0-.36,4.69,30.5,30.5,0,0,0,.58,5.93Z" />
        </clipPath>
        <linearGradient id="New_Gradient_Swatch_1-8" x1="1280.88" y1="239.65" x2="1209.52" y2="308.76"
            xlink:href="#New_Gradient_Swatch_1" />
        <clipPath id="clip-path-6">
            <path class="cls-1"
                d="M1246.81-57.07A154.09,154.09,0,0,0,1092.72,97a66.27,66.27,0,0,1,77,0,66.28,66.28,0,0,1,77,0,66.27,66.27,0,0,1,77,0,66.28,66.28,0,0,1,77.05,0A154.09,154.09,0,0,0,1246.81-57.07Z" />
        </clipPath>
        <linearGradient id="New_Gradient_Swatch_1-9" x1="1371.81" y1="-99.83" x2="1123.88" y2="140.29"
            xlink:href="#New_Gradient_Swatch_1" />
        <linearGradient id="New_Gradient_Swatch_1-10" x1="1548.59" y1="759.17" x2="1635.24" y2="759.17"
            xlink:href="#New_Gradient_Swatch_1" />
        <clipPath id="clip-path-7">
            <path class="cls-1"
                d="M1555.93,768.41a1.67,1.67,0,1,1,0-3.33h2.78a33.2,33.2,0,0,1-.52-5.93,34.78,34.78,0,0,1,.32-4.7h-2.58a1.66,1.66,0,1,1,0-3.32h3.22a33.68,33.68,0,1,1,.32,17.28Zm22.12-33.3a1,1,0,0,1,1.37.37,1,1,0,0,1-1.74,1,1,1,0,0,1,.37-1.38Zm-13.88,24a1,1,0,1,1,1,1,1,1,0,0,1-1-1Zm13.88,24a1,1,0,0,1-.37-1.38,1,1,0,1,1,.37,1.38Zm27.76,0a1,1,0,0,1-1.38-.37,1,1,0,1,1,1.38.37Zm13.88-24a1,1,0,0,1-1,1,1,1,0,1,1,1-1Zm-13.88-24a1,1,0,0,1,.36,1.38,1,1,0,0,1-1.74-1,1,1,0,0,1,1.38-.37Zm-12.35,11.33a12.7,12.7,0,0,1,8.7,5l6.86-4a1.53,1.53,0,0,1,1.53,2.66l-6.85,4a12.91,12.91,0,0,1,0,10.06l6.85,4a1.53,1.53,0,0,1-1.53,2.66l-6.86-4a12.7,12.7,0,0,1-8.7,5v7.91a1.54,1.54,0,1,1-3.07,0v-7.91a12.77,12.77,0,0,1-7.51-3.66,11.92,11.92,0,0,1-1.19-1.37l-6.85,4a1.54,1.54,0,0,1-1.54-2.66l6.85-4a12.91,12.91,0,0,1,0-10.06l-6.85-4a1.54,1.54,0,0,1,1.54-2.66l6.85,4a11.92,11.92,0,0,1,1.19-1.37,12.77,12.77,0,0,1,7.51-3.66v-7.91a1.54,1.54,0,1,1,3.07,0v7.91Zm3,7.71a1.12,1.12,0,0,0-1.11,1.12,1.08,1.08,0,0,0,.29.74l-2.23,3.58a1.09,1.09,0,0,0-1.13.24l-1.45-.94a1,1,0,0,0,0-.24,1.13,1.13,0,0,0-1.11-1.12,1.12,1.12,0,0,0-1.12,1.11,1.14,1.14,0,0,0,.33.8l-1.32,2.49a1,1,0,0,0-.25,0,1.11,1.11,0,0,0-1.13,1.11,1.12,1.12,0,1,0,2.24,0,1.08,1.08,0,0,0-.32-.79l1.33-2.5.23,0a1.15,1.15,0,0,0,.79-.32l1.43.92a.9.9,0,0,0,0,.28,1.11,1.11,0,1,0,2.22,0,1.08,1.08,0,0,0-.23-.69l2.26-3.62a1.35,1.35,0,0,0,.29,0,1.12,1.12,0,0,0,0-2.23m2.32-1.87a9.71,9.71,0,1,0,2.85,6.87,9.69,9.69,0,0,0-2.85-6.87Zm-36.71,12.8h2.78a1.67,1.67,0,0,1,0,3.33H1563a30.4,30.4,0,1,0-.37-17.28h2.29a1.66,1.66,0,1,1,0,3.32h-3a31.6,31.6,0,0,0-.36,4.7,30.5,30.5,0,0,0,.58,5.93Z" />
        </clipPath>
        <linearGradient id="New_Gradient_Swatch_1-11" x1="1625.67" y1="724.66" x2="1554.31" y2="793.77"
            xlink:href="#New_Gradient_Swatch_1" />
        <clipPath id="clip-path-8">
            <path class="cls-1"
                d="M1591.6,427.93A154.09,154.09,0,0,0,1437.51,582a66.27,66.27,0,0,1,77,0,66.28,66.28,0,0,1,77,0,66.27,66.27,0,0,1,77,0,66.28,66.28,0,0,1,77,0A154.09,154.09,0,0,0,1591.6,427.93Z" />
        </clipPath>
        <linearGradient id="New_Gradient_Swatch_1-12" x1="1716.6" y1="385.18" x2="1468.67" y2="625.29"
            xlink:href="#New_Gradient_Swatch_1" />
    </defs>
    <g class="cls-2">
        <g id="Layer_3" data-name="Layer 3">
            <rect class="cls-3" width="1920" height="1080" />
            <path class="cls-4"
                d="M326.88,353.23a.88.88,0,0,1-.62-.25,1,1,0,0,1-.19-1.26L403,218.33a.93.93,0,0,1,1.3-.34,1,1,0,0,1,.31,1.37L330.57,347.75,480.18,218.07a.92.92,0,0,1,1.33.14,1,1,0,0,1-.13,1.4L327.47,353A.89.89,0,0,1,326.88,353.23Z" />
            <path class="cls-4"
                d="M326.88,353.23a1,1,0,0,1-.81-.48L248.85,220.19a1,1,0,0,1,.31-1.37.91.91,0,0,1,1.29.33l75.48,129.56-.18-130.28a1,1,0,0,1,.94-1h0a1,1,0,0,1,.95,1l.18,133.8a1,1,0,0,1-.69,1A.73.73,0,0,1,326.88,353.23Z" />
            <path class="cls-4"
                d="M326.88,353.23a.92.92,0,0,1-.6-.23L172,219.92a1,1,0,0,1-.14-1.4.92.92,0,0,1,1.33-.14L327.47,351.46a1,1,0,0,1,.14,1.4A.94.94,0,0,1,326.88,353.23Z" />
            <path class="cls-5" d="M329.13,351.6a45.2,45.2,0,1,1-47.6,42.81A45.07,45.07,0,0,1,329.13,351.6Z" />
            <path class="cls-6" d="M329.29,353.43a43.33,43.33,0,1,1-45.54,41A43.33,43.33,0,0,1,329.29,353.43Z" />
            <path class="cls-7" d="M329.2,355.25a41.5,41.5,0,1,1-43.63,39.26A41.49,41.49,0,0,1,329.2,355.25Z" />
            <path class="cls-5" d="M328.79,363a33.75,33.75,0,1,1-35.48,31.93A33.75,33.75,0,0,1,328.79,363Z" />
            <g class="cls-8">
                <rect class="cls-9" x="288.93" y="362.38" width="72.37" height="68.66" />
            </g>
            <g class="cls-10">
                <rect class="cls-11" x="163.81" y="62.94" width="328.01" height="159.47" />
            </g>
            <path class="cls-12"
                d="M249.65,219.55h0a66.27,66.27,0,0,1,77,0h0V65.46C284.14,65.46,249.65,134.45,249.65,219.55Z" />
            <path class="cls-12"
                d="M326.69,65.46c42.55,0,77.05,69,77.05,154.09h0a66.27,66.27,0,0,1,77,0h0A154.09,154.09,0,0,0,326.69,65.46Z" />
            <path class="cls-4"
                d="M863.83,596.89a.93.93,0,0,1-.62-.24,1,1,0,0,1-.19-1.27L940,462a.92.92,0,0,1,1.3-.33,1,1,0,0,1,.32,1.36L867.52,591.41l149.61-129.67a.91.91,0,0,1,1.33.14,1,1,0,0,1-.13,1.4L864.43,596.67A.93.93,0,0,1,863.83,596.89Z" />
            <path class="cls-4"
                d="M863.83,596.89a.92.92,0,0,1-.8-.47L785.8,463.85a1,1,0,0,1,.31-1.36.91.91,0,0,1,1.29.32l75.48,129.56L862.7,462.1a1,1,0,0,1,.94-1h0a1,1,0,0,1,.94,1l.18,133.8a1,1,0,0,1-.68,1Z" />
            <path class="cls-4"
                d="M863.83,596.89a.93.93,0,0,1-.6-.22L709,463.59a1,1,0,0,1-.13-1.4.9.9,0,0,1,1.32-.14L864.43,595.13a1,1,0,0,1,.13,1.4A.93.93,0,0,1,863.83,596.89Z" />
            <path class="cls-5" d="M866.08,595.26a45.21,45.21,0,1,1-47.6,42.81A45.1,45.1,0,0,1,866.08,595.26Z" />
            <path class="cls-13" d="M866.25,597.1a43.32,43.32,0,1,1-45.55,41A43.32,43.32,0,0,1,866.25,597.1Z" />
            <path class="cls-7" d="M866.15,598.92a41.5,41.5,0,1,1-43.63,39.25A41.51,41.51,0,0,1,866.15,598.92Z" />
            <path class="cls-5" d="M865.74,606.65a33.76,33.76,0,1,1-35.48,31.93A33.76,33.76,0,0,1,865.74,606.65Z" />
            <g class="cls-14">
                <rect class="cls-15" x="825.88" y="606.05" width="72.37" height="68.66" />
            </g>
            <g class="cls-16">
                <rect class="cls-17" x="700.77" y="306.61" width="328.01" height="159.47" />
            </g>
            <path class="cls-12"
                d="M786.6,463.22h0a66.28,66.28,0,0,1,77,0h0V309.13C821.09,309.13,786.6,378.12,786.6,463.22Z" />
            <path class="cls-12"
                d="M863.65,309.13c42.55,0,77,69,77,154.09h0a66.27,66.27,0,0,1,77,0h0A154.08,154.08,0,0,0,863.65,309.13Z" />
            <path class="cls-4"
                d="M1247,230.69a.93.93,0,0,1-.62-.24,1,1,0,0,1-.19-1.27l77-133.39a.91.91,0,0,1,1.29-.33,1,1,0,0,1,.32,1.36l-74.07,128.39L1400.29,95.54a.91.91,0,0,1,1.33.13,1,1,0,0,1-.13,1.4l-153.9,133.4A.93.93,0,0,1,1247,230.69Z" />
            <path class="cls-4"
                d="M1247,230.69a.92.92,0,0,1-.8-.47L1169,97.65a1,1,0,0,1,.31-1.37.93.93,0,0,1,1.3.33L1246,226.17l-.18-130.27a1,1,0,0,1,1-1h0a1,1,0,0,1,.94,1l.18,133.81a1,1,0,0,1-.68,1A.82.82,0,0,1,1247,230.69Z" />
            <path class="cls-4"
                d="M1247,230.69a.93.93,0,0,1-.6-.22L1092.12,97.39A1,1,0,0,1,1092,96a.9.9,0,0,1,1.32-.14l154.28,133.08a1,1,0,0,1,.13,1.4A.93.93,0,0,1,1247,230.69Z" />
            <path class="cls-5" d="M1249.24,229.06a45.21,45.21,0,1,1-47.6,42.81A45.08,45.08,0,0,1,1249.24,229.06Z" />
            <path class="cls-18" d="M1249.41,230.9a43.32,43.32,0,1,1-45.55,41A43.32,43.32,0,0,1,1249.41,230.9Z" />
            <path class="cls-7" d="M1249.31,232.72A41.5,41.5,0,1,1,1205.68,272,41.5,41.5,0,0,1,1249.31,232.72Z" />
            <path class="cls-5" d="M1248.9,240.45a33.75,33.75,0,1,1-35.48,31.93A33.75,33.75,0,0,1,1248.9,240.45Z" />
            <g class="cls-19">
                <rect class="cls-20" x="1209.04" y="239.85" width="72.37" height="68.66" />
            </g>
            <g class="cls-21">
                <rect class="cls-22" x="1083.93" y="-59.59" width="328.01" height="159.47" />
            </g>
            <path class="cls-12"
                d="M1169.76,97h0a66.28,66.28,0,0,1,77,0h0V-57.07C1204.26-57.07,1169.76,11.92,1169.76,97Z" />
            <path class="cls-12"
                d="M1246.81-57.07c42.55,0,77,69,77,154.09h0a66.28,66.28,0,0,1,77.05,0h0A154.09,154.09,0,0,0,1246.81-57.07Z" />
            <path class="cls-4"
                d="M1591.78,715.7a.93.93,0,0,1-.62-.24,1,1,0,0,1-.18-1.27l77-133.39a.92.92,0,0,1,1.29-.34,1,1,0,0,1,.32,1.37l-74.07,128.39,149.62-129.68a.91.91,0,0,1,1.32.14,1,1,0,0,1-.13,1.4l-153.9,133.39A.92.92,0,0,1,1591.78,715.7Z" />
            <path class="cls-4"
                d="M1591.78,715.7a.92.92,0,0,1-.8-.47l-77.23-132.57a1,1,0,0,1,.31-1.37.92.92,0,0,1,1.3.33l75.47,129.56-.17-130.28a1,1,0,0,1,.94-1h0a1,1,0,0,1,.94,1l.18,133.8a1,1,0,0,1-.68,1A.78.78,0,0,1,1591.78,715.7Z" />
            <path class="cls-4"
                d="M1591.78,715.7a.89.89,0,0,1-.6-.23L1436.91,582.39a1,1,0,0,1-.13-1.4.92.92,0,0,1,1.33-.14l154.27,133.09a1,1,0,0,1,.13,1.39A.94.94,0,0,1,1591.78,715.7Z" />
            <path class="cls-5" d="M1594,714.07a45.2,45.2,0,1,1-47.59,42.81A45.07,45.07,0,0,1,1594,714.07Z" />
            <path class="cls-23" d="M1594.2,715.9a43.33,43.33,0,1,1-45.55,41A43.33,43.33,0,0,1,1594.2,715.9Z" />
            <path class="cls-7" d="M1594.1,717.72A41.5,41.5,0,1,1,1550.48,757,41.5,41.5,0,0,1,1594.1,717.72Z" />
            <path class="cls-5" d="M1593.7,725.46a33.75,33.75,0,1,1-35.49,31.93A33.75,33.75,0,0,1,1593.7,725.46Z" />
            <g class="cls-24">
                <rect class="cls-25" x="1553.83" y="724.86" width="72.37" height="68.66" />
            </g>
            <g class="cls-26">
                <rect class="cls-27" x="1428.72" y="425.41" width="328.01" height="159.47" />
            </g>
            <path class="cls-12"
                d="M1514.55,582h0a66.28,66.28,0,0,1,77,0h0V427.93C1549.05,427.93,1514.55,496.92,1514.55,582Z" />
            <path class="cls-12"
                d="M1591.6,427.93c42.55,0,77,69,77,154.09h0a66.28,66.28,0,0,1,77,0h0A154.09,154.09,0,0,0,1591.6,427.93Z" />
        </g>
    </g>
</svg>