<svg id="Layer_3" data-name="Layer 3" xmlns="http://www.w3.org/2000/svg" xmlns:xlink="http://www.w3.org/1999/xlink"
    viewBox="0 0 399.95 1097.82">
    <defs>
        <style>
            .cls-1 {
                fill: url(#New_Gradient_Swatch_1);
            }

            .cls-2 {
                fill: #f0f0f0;
                opacity: 0.1;
            }

            .cls-3,
            .cls-7 {
                fill: none;
                stroke-miterlimit: 10;
            }

            .cls-3 {
                stroke-width: 2px;
                stroke: url(#New_Gradient_Swatch_1-2);
            }

            .cls-4 {
                fill: url(#New_Gradient_Swatch_1-3);
            }

            .cls-5 {
                font-size: 167.88px;
                font-family: SegoeUI-Bold, Segoe UI;
                font-weight: 700;
                letter-spacing: 0.05em;
            }

            .cls-5,
            .cls-6 {
                fill: #fff;
            }

            .cls-7 {
                stroke: #fff;
                stroke-width: 1.75px;
            }
        </style>
        <linearGradient id="New_Gradient_Swatch_1" x1="-62.38" y1="811.49" x2="503.85" y2="245.26"
            gradientUnits="userSpaceOnUse">
            <stop offset="0" stop-color="#a42e9a" />
            <stop offset="0.33" stop-color="#902ccc" />
            <stop offset="0.66" stop-color="#5951f6" />
            <stop offset="1" stop-color="#1db3f9" />
        </linearGradient>
        <linearGradient id="New_Gradient_Swatch_1-2" x1="86.51" y1="349.29" x2="317.59" y2="118.21"
            xlink:href="#New_Gradient_Swatch_1" />
        <linearGradient id="New_Gradient_Swatch_1-3" x1="87.37" y1="969.42" x2="316.74" y2="740.05"
            xlink:href="#New_Gradient_Swatch_1" />
    </defs>
    <path class="cls-1"
        d="M202.05,1075.93v-6.82c95.89,0,173.9-78,173.9-173.9V198.91C376,103,297.94,25,202.05,25S28.16,103,28.16,198.91V513.46H21.34V198.91c0-99.65,81.07-180.72,180.71-180.72S382.77,99.26,382.77,198.91v696.3C382.77,994.86,301.7,1075.93,202.05,1075.93Z" />
    <path class="cls-2"
        d="M202.05,1052.87h0c-86.71,0-157.65-70.95-157.65-157.66V198.91c0-86.71,70.94-157.66,157.65-157.66h0c56,0,105.38,29.56,133.37,73.85a156.4,156.4,0,0,1,24.29,83.81v696.3C359.71,981.92,288.76,1052.87,202.05,1052.87Z" />
    <path class="cls-3" d="M341.62,323.26v-122c0-76.76-62.81-139.57-139.57-139.57S62.48,124.47,62.48,201.23v122Z" />
    <path class="cls-4" d="M62.48,764.93V887c0,76.76,62.81,139.57,139.57,139.57S341.62,963.72,341.62,887v-122Z" /><text
        class="cls-5" transform="translate(152.93 268.68)">2</text>
    <path class="cls-6"
        d="M155.92,501.19a8.5,8.5,0,0,1-1.75,5.78,6.37,6.37,0,0,1-5.07,2,7.22,7.22,0,0,1-2.74-.51v-4a3.9,3.9,0,0,0,2.44.83q2.89,0,2.9-4.3V489.84h4.22Z" />
    <path class="cls-6"
        d="M167.35,509a7.24,7.24,0,0,1-5.28-1.88,7.79,7.79,0,0,1,.07-10.32,7.52,7.52,0,0,1,5.39-1.89,7.13,7.13,0,0,1,5.25,1.89,6.66,6.66,0,0,1,1.9,5,7.11,7.11,0,0,1-2,5.29A7.31,7.31,0,0,1,167.35,509Zm.11-10.91a2.77,2.77,0,0,0-2.29,1,4.45,4.45,0,0,0-.81,2.86q0,3.87,3.12,3.87t3-4Q170.46,498.07,167.46,498.07Z" />
    <path class="cls-6"
        d="M180.79,493.1a2.4,2.4,0,0,1-1.72-.63,2,2,0,0,1-.67-1.52,1.94,1.94,0,0,1,.67-1.53,2.8,2.8,0,0,1,3.44,0,2,2,0,0,1,.66,1.53,2,2,0,0,1-.66,1.54A2.43,2.43,0,0,1,180.79,493.1Zm2,15.55h-4.14V495.22h4.14Z" />
    <path class="cls-6"
        d="M200.61,508.65h-4.13v-7.46c0-2.08-.75-3.12-2.23-3.12a2.2,2.2,0,0,0-1.77.82,3.12,3.12,0,0,0-.7,2.1v7.66h-4.14V495.22h4.14v2.13h.05a4.75,4.75,0,0,1,4.32-2.46q4.46,0,4.46,5.54Z" />
    <path class="cls-6"
        d="M220.33,509a7.24,7.24,0,0,1-5.28-1.88,7.79,7.79,0,0,1,.07-10.32,7.52,7.52,0,0,1,5.39-1.89,7.13,7.13,0,0,1,5.25,1.89,6.66,6.66,0,0,1,1.9,5,7.11,7.11,0,0,1-2,5.29A7.32,7.32,0,0,1,220.33,509Zm.11-10.91a2.77,2.77,0,0,0-2.29,1,4.45,4.45,0,0,0-.81,2.86q0,3.87,3.12,3.87t3-4Q223.44,498.07,220.44,498.07Z" />
    <path class="cls-6"
        d="M244.43,508.65H240.3v-2h-.07a4.68,4.68,0,0,1-4.1,2.37c-3.12,0-4.67-1.88-4.67-5.65v-8.11h4.13V503q0,2.85,2.25,2.85a2.22,2.22,0,0,0,1.79-.79,3.14,3.14,0,0,0,.67-2.11v-7.69h4.13Z" />
    <path class="cls-6"
        d="M258,499a3.58,3.58,0,0,0-1.74-.41,2.5,2.5,0,0,0-2.11,1,4.31,4.31,0,0,0-.76,2.7v6.41h-4.15V495.22h4.15v2.49h.05A3.6,3.6,0,0,1,257,495a2.72,2.72,0,0,1,1,.16Z" />
    <path class="cls-6" d="M112.24,525.53H105.6v4.61h6.1v3.44h-6.1v7.31h-4.24V522.08h10.88Z" />
    <path class="cls-6"
        d="M127.42,540.89h-3.93V539h0a4.37,4.37,0,0,1-4,2.25,4.19,4.19,0,0,1-3.07-1.1,4,4,0,0,1-1.13-3c0-2.61,1.55-4.11,4.63-4.51l3.65-.49c0-1.47-.8-2.2-2.39-2.2a8.08,8.08,0,0,0-4.56,1.43v-3.13a10.23,10.23,0,0,1,2.37-.78,12.25,12.25,0,0,1,2.73-.34q5.74,0,5.75,5.73Zm-3.9-5.46v-.91l-2.44.32c-1.35.17-2,.78-2,1.82a1.5,1.5,0,0,0,.49,1.16,1.9,1.9,0,0,0,1.33.45,2.46,2.46,0,0,0,1.91-.8A3,3,0,0,0,123.52,535.43Z" />
    <path class="cls-6"
        d="M142.19,540.4a8.25,8.25,0,0,1-4.06.81,6.86,6.86,0,0,1-5-1.87,6.51,6.51,0,0,1-1.91-4.84,7.14,7.14,0,0,1,2-5.4,7.57,7.57,0,0,1,5.49-2,7.07,7.07,0,0,1,3.44.63v3.51a4.71,4.71,0,0,0-2.9-1,3.85,3.85,0,0,0-2.83,1,3.93,3.93,0,0,0-1,2.88,3.79,3.79,0,0,0,1,2.8,3.65,3.65,0,0,0,2.74,1,5.46,5.46,0,0,0,3-1Z" />
    <path class="cls-6"
        d="M158.28,535.35h-8.76q.21,2.92,3.69,2.92a7.16,7.16,0,0,0,3.89-1v3a10.27,10.27,0,0,1-4.84,1,6.24,6.24,0,0,1-6.84-6.83,7.2,7.2,0,0,1,1.94-5.3,6.46,6.46,0,0,1,4.77-2,5.89,5.89,0,0,1,4.55,1.74,6.72,6.72,0,0,1,1.6,4.74Zm-3.84-2.54c0-1.93-.78-2.89-2.33-2.89a2.24,2.24,0,0,0-1.73.83,3.72,3.72,0,0,0-.88,2.06Z" />
    <path class="cls-6"
        d="M166.26,539.32h0v1.57h-4.14V521h4.14v8.47h0a4.93,4.93,0,0,1,4.37-2.34,4.78,4.78,0,0,1,4,1.78,7.68,7.68,0,0,1,1.41,4.88,8.35,8.35,0,0,1-1.64,5.39,5.35,5.35,0,0,1-4.39,2A4.23,4.23,0,0,1,166.26,539.32Zm-.11-5.66V535a3.14,3.14,0,0,0,.74,2.15,2.43,2.43,0,0,0,1.92.85,2.54,2.54,0,0,0,2.19-1.1,5.2,5.2,0,0,0,.79-3.1,4.16,4.16,0,0,0-.72-2.6,2.41,2.41,0,0,0-2-.94,2.62,2.62,0,0,0-2.06.93A3.52,3.52,0,0,0,166.15,533.66Z" />
    <path class="cls-6"
        d="M186.44,541.21a7.2,7.2,0,0,1-5.28-1.88,7.79,7.79,0,0,1,.07-10.32,7.52,7.52,0,0,1,5.39-1.88,7.12,7.12,0,0,1,5.25,1.88,6.67,6.67,0,0,1,1.9,5,7.07,7.07,0,0,1-2,5.28A7.28,7.28,0,0,1,186.44,541.21Zm.11-10.91a2.8,2.8,0,0,0-2.29,1,4.47,4.47,0,0,0-.81,2.86q0,3.87,3.12,3.87c2,0,3-1.33,3-4S188.55,530.3,186.55,530.3Z" />
    <path class="cls-6"
        d="M204.18,541.21a7.2,7.2,0,0,1-5.28-1.88A7.79,7.79,0,0,1,199,529a7.52,7.52,0,0,1,5.39-1.88,7.12,7.12,0,0,1,5.25,1.88,6.67,6.67,0,0,1,1.9,5,7.07,7.07,0,0,1-2,5.28A7.28,7.28,0,0,1,204.18,541.21Zm.1-10.91a2.77,2.77,0,0,0-2.28,1,4.47,4.47,0,0,0-.81,2.86q0,3.87,3.12,3.87c2,0,3-1.33,3-4S206.29,530.3,204.28,530.3Z" />
    <path class="cls-6" d="M229,540.89h-5l-4.29-6.67h-.05v6.67h-4.15V521h4.15v12.66h.05l4-6.21h4.92l-4.81,6.31Z" />
    <path class="cls-6"
        d="M245.22,534.41v6.48H241V522.08h6.64q7.11,0,7.11,6a5.73,5.73,0,0,1-2,4.58,8.08,8.08,0,0,1-5.45,1.76Zm0-9.08v5.86h1.66q3.39,0,3.39-3t-3.39-2.9Z" />
    <path class="cls-6"
        d="M269.57,540.89h-3.93V539h-.05a4.37,4.37,0,0,1-4,2.25,4.19,4.19,0,0,1-3.07-1.1,4,4,0,0,1-1.13-3c0-2.61,1.55-4.11,4.63-4.51l3.65-.49c0-1.47-.8-2.2-2.39-2.2a8.08,8.08,0,0,0-4.56,1.43v-3.13a10.23,10.23,0,0,1,2.37-.78,12.25,12.25,0,0,1,2.73-.34q5.74,0,5.75,5.73Zm-3.9-5.46v-.91l-2.44.32c-1.35.17-2,.78-2,1.82a1.5,1.5,0,0,0,.49,1.16,1.9,1.9,0,0,0,1.33.45,2.46,2.46,0,0,0,1.91-.8A3,3,0,0,0,265.67,535.43Z" />
    <path class="cls-6"
        d="M287.33,539.35a7.58,7.58,0,0,1-2.17,5.79q-2.16,2.05-6.26,2.05a9.9,9.9,0,0,1-4.31-.77v-3.49a8.2,8.2,0,0,0,4.19,1.21A4.49,4.49,0,0,0,282,543a4,4,0,0,0,1.15-3V539h-.05a4.63,4.63,0,0,1-4.18,2.25,5,5,0,0,1-4.08-1.81,7.29,7.29,0,0,1-1.51-4.85,8.19,8.19,0,0,1,1.68-5.42,5.5,5.5,0,0,1,4.42-2,4.08,4.08,0,0,1,3.67,1.89h.05v-1.57h4.15Zm-4.09-4.92v-1.06a3.23,3.23,0,0,0-.76-2.17,2.42,2.42,0,0,0-2-.9,2.52,2.52,0,0,0-2.16,1.08,5,5,0,0,0-.79,3,4.24,4.24,0,0,0,.75,2.65,2.44,2.44,0,0,0,2,1,2.54,2.54,0,0,0,2.08-1A4.06,4.06,0,0,0,283.24,534.43Z" />
    <path class="cls-6"
        d="M304.17,535.35h-8.76q.21,2.92,3.69,2.92a7.16,7.16,0,0,0,3.89-1v3a10.27,10.27,0,0,1-4.84,1,6.24,6.24,0,0,1-6.84-6.83,7.16,7.16,0,0,1,1.94-5.3,6.46,6.46,0,0,1,4.77-2,5.89,5.89,0,0,1,4.55,1.74,6.72,6.72,0,0,1,1.6,4.74Zm-3.84-2.54c0-1.93-.78-2.89-2.33-2.89a2.24,2.24,0,0,0-1.73.83,3.72,3.72,0,0,0-.88,2.06Z" />
    <path class="cls-6"
        d="M88.67,559.69,84.8,573.12H80.44l-2-7.87a7.7,7.7,0,0,1-.22-1.72h-.08a10.73,10.73,0,0,1-.26,1.67l-2.13,7.92h-4.3l-3.79-13.43H71.9l1.85,8.76a10.38,10.38,0,0,1,.2,1.49H74a8.26,8.26,0,0,1,.23-1.54l2.31-8.71h4l2.07,8.76a14.2,14.2,0,0,1,.19,1.52h.09a13.22,13.22,0,0,1,.21-1.52l1.74-8.76Z" />
    <path class="cls-6"
        d="M111.4,559.69l-3.87,13.43h-4.35l-2-7.87a7.69,7.69,0,0,1-.23-1.72h-.08a9.65,9.65,0,0,1-.26,1.67l-2.12,7.92H94.2l-3.79-13.43h4.23l1.85,8.76a12.22,12.22,0,0,1,.19,1.49h.08A8.19,8.19,0,0,1,97,568.4l2.31-8.71h3.94l2.08,8.76a15.28,15.28,0,0,1,.18,1.52h.09c.05-.51.12-1,.21-1.52l1.75-8.76Z" />
    <path class="cls-6"
        d="M134.13,559.69l-3.87,13.43h-4.35l-2-7.87a7.7,7.7,0,0,1-.22-1.72h-.08a10.73,10.73,0,0,1-.26,1.67l-2.13,7.92h-4.3l-3.79-13.43h4.22l1.85,8.76a12,12,0,0,1,.2,1.49h.08a8.26,8.26,0,0,1,.23-1.54l2.31-8.71H126l2.07,8.76a15.28,15.28,0,0,1,.18,1.52h.1a13.22,13.22,0,0,1,.21-1.52l1.74-8.76Z" />
    <path class="cls-6"
        d="M139.27,573.45a2.41,2.41,0,0,1-1.71-.63,2,2,0,0,1-.68-1.55,1.94,1.94,0,0,1,.7-1.55,2.6,2.6,0,0,1,1.75-.6,2.48,2.48,0,0,1,1.74.61,2,2,0,0,1,.67,1.54,2,2,0,0,1-.68,1.57A2.64,2.64,0,0,1,139.27,573.45Z" />
    <path class="cls-6"
        d="M154.77,556.41a4.16,4.16,0,0,0-1.53-.32c-1.33,0-2,.73-2,2.17v1.43h3.06v3h-3.06v10.38h-4.14V562.74h-2.25v-3h2.25V558a4.84,4.84,0,0,1,1.5-3.7,5.72,5.72,0,0,1,4.06-1.4,7.33,7.33,0,0,1,2.1.26Z" />
    <path class="cls-6"
        d="M168.8,573.12h-3.92v-1.93h0a4.41,4.41,0,0,1-4,2.26,4.18,4.18,0,0,1-3.07-1.11,4,4,0,0,1-1.12-3q0-3.92,4.63-4.51l3.64-.49c0-1.47-.79-2.2-2.38-2.2a8.18,8.18,0,0,0-4.57,1.43v-3.12a10.35,10.35,0,0,1,2.37-.79,12.25,12.25,0,0,1,2.73-.34q5.74,0,5.75,5.73Zm-3.9-5.46v-.9l-2.44.31c-1.34.18-2,.79-2,1.83a1.52,1.52,0,0,0,.5,1.16,1.88,1.88,0,0,0,1.33.45,2.46,2.46,0,0,0,1.9-.81A2.92,2.92,0,0,0,164.9,567.66Z" />
    <path class="cls-6"
        d="M183.57,572.63a8.07,8.07,0,0,1-4,.82,6.87,6.87,0,0,1-5-1.88,6.46,6.46,0,0,1-1.92-4.84,7.15,7.15,0,0,1,2.06-5.4,7.58,7.58,0,0,1,5.49-2,7,7,0,0,1,3.43.63v3.51a4.75,4.75,0,0,0-2.9-1,3.78,3.78,0,0,0-2.82,1.05,4.45,4.45,0,0,0,0,5.68,3.68,3.68,0,0,0,2.74,1,5.46,5.46,0,0,0,3-1Z" />
    <path class="cls-6"
        d="M199.67,567.58h-8.76q.21,2.92,3.68,2.93a7.2,7.2,0,0,0,3.9-1v3a10.3,10.3,0,0,1-4.84,1,6.26,6.26,0,0,1-6.85-6.84,7.18,7.18,0,0,1,1.94-5.29,6.46,6.46,0,0,1,4.78-2,5.83,5.83,0,0,1,4.54,1.75,6.71,6.71,0,0,1,1.61,4.73ZM195.83,565c0-1.92-.78-2.89-2.34-2.89a2.23,2.23,0,0,0-1.72.83,3.76,3.76,0,0,0-.89,2.06Z" />
    <path class="cls-6"
        d="M207.65,571.56h-.06v1.56h-4.14V553.23h4.14v8.48h.06a4.9,4.9,0,0,1,4.36-2.35,4.8,4.8,0,0,1,4,1.78,7.74,7.74,0,0,1,1.4,4.88,8.33,8.33,0,0,1-1.64,5.39,5.32,5.32,0,0,1-4.38,2A4.23,4.23,0,0,1,207.65,571.56Zm-.12-5.67v1.38a3.15,3.15,0,0,0,.75,2.15,2.41,2.41,0,0,0,1.91.85,2.54,2.54,0,0,0,2.2-1.09,5.3,5.3,0,0,0,.78-3.1,4.22,4.22,0,0,0-.72-2.61,2.4,2.4,0,0,0-2-.94,2.61,2.61,0,0,0-2.07.94A3.51,3.51,0,0,0,207.53,565.89Z" />
    <path class="cls-6"
        d="M227.82,573.45a7.19,7.19,0,0,1-5.27-1.89,7.76,7.76,0,0,1,.07-10.32,7.54,7.54,0,0,1,5.39-1.88,7.12,7.12,0,0,1,5.24,1.88,6.71,6.71,0,0,1,1.91,5,7.15,7.15,0,0,1-2,5.29A7.33,7.33,0,0,1,227.82,573.45Zm.11-10.92a2.77,2.77,0,0,0-2.28,1,4.49,4.49,0,0,0-.82,2.86q0,3.87,3.13,3.87,3,0,3-4Q230.93,562.54,227.93,562.53Z" />
    <path class="cls-6"
        d="M245.56,573.45a7.2,7.2,0,0,1-5.28-1.89,7.79,7.79,0,0,1,.07-10.32,7.57,7.57,0,0,1,5.4-1.88,7.14,7.14,0,0,1,5.24,1.88,6.7,6.7,0,0,1,1.9,5,7.11,7.11,0,0,1-2,5.29A7.31,7.31,0,0,1,245.56,573.45Zm.11-10.92a2.8,2.8,0,0,0-2.29,1,4.49,4.49,0,0,0-.81,2.86q0,3.87,3.12,3.87t3-4Q248.67,562.54,245.67,562.53Z" />
    <path class="cls-6" d="M270.36,573.12h-5l-4.28-6.66H261v6.66H256.9V553.23H261v12.66h.06l4-6.2H270L265.2,566Z" />
    <path class="cls-6"
        d="M275.08,573.45a2.4,2.4,0,0,1-1.7-.63,2,2,0,0,1-.69-1.55,2,2,0,0,1,.71-1.55,2.58,2.58,0,0,1,1.75-.6,2.47,2.47,0,0,1,1.73.61,2.11,2.11,0,0,1,0,3.11A2.62,2.62,0,0,1,275.08,573.45Z" />
    <path class="cls-6"
        d="M292,572.63a8.07,8.07,0,0,1-4.05.82,6.87,6.87,0,0,1-5-1.88,6.49,6.49,0,0,1-1.91-4.84,7.14,7.14,0,0,1,2.05-5.4,7.62,7.62,0,0,1,5.49-2A7,7,0,0,1,292,560v3.51a4.75,4.75,0,0,0-2.89-1,4.07,4.07,0,0,0-2.88,6.73,3.71,3.71,0,0,0,2.75,1,5.4,5.4,0,0,0,3-1Z" />
    <path class="cls-6"
        d="M302.44,573.45a7.2,7.2,0,0,1-5.28-1.89,7.79,7.79,0,0,1,.07-10.32,7.56,7.56,0,0,1,5.39-1.88,7.16,7.16,0,0,1,5.25,1.88,6.74,6.74,0,0,1,1.9,5,7.11,7.11,0,0,1-2,5.29A7.32,7.32,0,0,1,302.44,573.45Zm.1-10.92a2.77,2.77,0,0,0-2.28,1,4.49,4.49,0,0,0-.81,2.86q0,3.87,3.12,3.87t3-4Q305.54,562.54,302.54,562.53Z" />
    <path class="cls-6"
        d="M335.1,573.12H331v-7.66c0-2-.72-2.93-2.15-2.93a2,2,0,0,0-1.67.88,3.62,3.62,0,0,0-.64,2.19v7.52h-4.15v-7.74c0-1.9-.7-2.85-2.11-2.85a2,2,0,0,0-1.7.84,3.73,3.73,0,0,0-.63,2.29v7.46h-4.15V559.69h4.15v2.1H318a5.1,5.1,0,0,1,4.34-2.43,3.88,3.88,0,0,1,3.9,2.51,5,5,0,0,1,4.51-2.51q4.38,0,4.38,5.4Z" />
    <path class="cls-6" d="M134.62,586.54l-9.17,21.93h-3.7l9.13-21.93Z" />
    <path class="cls-6"
        d="M153.43,586.54,147,605.35h-4.8l-6.4-18.81h4.56l3.93,13.09a9.92,9.92,0,0,1,.38,1.88h.08a10.39,10.39,0,0,1,.4-1.93l3.9-13Z" />
    <path class="cls-6"
        d="M167.77,605.35h-3.92v-1.93h0a4.37,4.37,0,0,1-4,2.26,4.18,4.18,0,0,1-3.08-1.11,4,4,0,0,1-1.12-3c0-2.6,1.54-4.11,4.63-4.51l3.64-.48c0-1.47-.79-2.21-2.38-2.21a8.21,8.21,0,0,0-4.57,1.43v-3.12a9.92,9.92,0,0,1,2.37-.78,12.31,12.31,0,0,1,2.74-.35q5.75,0,5.74,5.74Zm-3.9-5.45V599l-2.43.32c-1.35.17-2,.78-2,1.82a1.5,1.5,0,0,0,.49,1.16,1.9,1.9,0,0,0,1.33.45,2.47,2.47,0,0,0,1.9-.8A2.92,2.92,0,0,0,163.87,599.9Z" />
    <path class="cls-6"
        d="M185.13,605.35H181v-2h-.07a4.69,4.69,0,0,1-4.11,2.37q-4.66,0-4.67-5.65v-8.11h4.14v7.74q0,2.85,2.25,2.85a2.24,2.24,0,0,0,1.79-.78,3.19,3.19,0,0,0,.67-2.12v-7.69h4.13Z" />
    <path class="cls-6" d="M194.08,605.35h-4.15V585.47h4.15Z" />
    <path class="cls-6"
        d="M207,605.19a6,6,0,0,1-2.77.49q-4.38,0-4.38-4.55V595h-2.18v-3.06h2.18V589l4.13-1.18v4.08h3V595h-3v5.43c0,1.4.56,2.1,1.67,2.1a2.83,2.83,0,0,0,1.35-.38Z" />
    <path class="cls-6"
        d="M223.44,591.92,218,606.43q-2,5.24-5.93,5.23a7.46,7.46,0,0,1-2.47-.34V608a3.4,3.4,0,0,0,1.79.49A2.24,2.24,0,0,0,213.6,607l.71-1.66-5.46-13.41h4.59l2.51,8.17a10.71,10.71,0,0,1,.37,1.8h.05a12.43,12.43,0,0,1,.43-1.77l2.53-8.2Z" />
    <path class="cls-6"
        d="M231.06,598.87v6.48h-4.23V586.54h6.63q7.11,0,7.11,6a5.74,5.74,0,0,1-2,4.58,8.06,8.06,0,0,1-5.45,1.75Zm0-9.07v5.86h1.67q3.38,0,3.38-3c0-1.94-1.13-2.9-3.38-2.9Z" />
    <path class="cls-6"
        d="M260.42,605.35h-4.87l-2.92-4.84c-.22-.36-.43-.69-.63-1a4.72,4.72,0,0,0-.61-.74,2.44,2.44,0,0,0-.64-.47,1.66,1.66,0,0,0-.73-.17h-1.14v7.2h-4.24V586.54h6.72q6.84,0,6.84,5.12a5.35,5.35,0,0,1-.3,1.82,5.06,5.06,0,0,1-.85,1.5,5.49,5.49,0,0,1-1.33,1.15,6.51,6.51,0,0,1-1.74.76v.05a2.65,2.65,0,0,1,.81.43,5.45,5.45,0,0,1,.76.69,8.63,8.63,0,0,1,.71.85c.22.3.42.59.61.88Zm-11.54-15.63V595h1.83a3.06,3.06,0,0,0,2.2-.79,2.64,2.64,0,0,0,.83-2c0-1.64-1-2.46-3-2.46Z" />
    <path class="cls-6"
        d="M271.44,605.68a8.75,8.75,0,0,1-6.58-2.63,9.43,9.43,0,0,1-2.55-6.85A10.14,10.14,0,0,1,264.9,589a9,9,0,0,1,6.84-2.75,8.54,8.54,0,0,1,6.52,2.64,9.73,9.73,0,0,1,2.48,7,10,10,0,0,1-2.57,7.15A8.89,8.89,0,0,1,271.44,605.68Zm.19-15.8a4.27,4.27,0,0,0-3.55,1.67,7,7,0,0,0-1.31,4.42,6.85,6.85,0,0,0,1.31,4.42,4.21,4.21,0,0,0,3.44,1.63,4.27,4.27,0,0,0,3.48-1.58,6.81,6.81,0,0,0,1.28-4.39A7.35,7.35,0,0,0,275,591.5,4.07,4.07,0,0,0,271.63,589.88Z" />
    <path class="cls-6"
        d="M230.59,913l3.25-21.19H213.51V878c0-5.8,2.84-11.45,11.94-11.45h9.25v-18a112.88,112.88,0,0,0-16.41-1.43c-16.75,0-27.69,10.15-27.69,28.52v16.15H172V913H190.6v51.23a74.16,74.16,0,0,0,22.91,0V913Z" />
    <circle class="cls-7" cx="202.05" cy="891.76" r="73.31" />
</svg>