<svg id="Layer_3" data-name="Layer 3" xmlns="http://www.w3.org/2000/svg" xmlns:xlink="http://www.w3.org/1999/xlink"
    viewBox="0 0 399.95 1097.82">
    <defs>
        <style>
            .cls-1 {
                fill: url(#New_Gradient_Swatch_1);
            }

            .cls-2 {
                fill: #f0f0f0;
                opacity: 0.1;
            }

            .cls-3,
            .cls-7 {
                fill: none;
                stroke-miterlimit: 10;
            }

            .cls-3 {
                stroke-width: 2px;
                stroke: url(#New_Gradient_Swatch_1-2);
            }

            .cls-4 {
                fill: url(#New_Gradient_Swatch_1-3);
            }

            .cls-5 {
                font-size: 168.38px;
                font-family: SegoeUI-Bold, Segoe UI;
                font-weight: 700;
                letter-spacing: 0.05em;
            }

            .cls-5,
            .cls-6 {
                fill: #fff;
            }

            .cls-7 {
                stroke: #fff;
                stroke-width: 1.75px;
            }
        </style>
        <linearGradient id="New_Gradient_Swatch_1" x1="-62.32" y1="815.5" x2="505.58" y2="247.6"
            gradientUnits="userSpaceOnUse">
            <stop offset="0" stop-color="#a42e9a" />
            <stop offset="0.33" stop-color="#902ccc" />
            <stop offset="0.66" stop-color="#5951f6" />
            <stop offset="1" stop-color="#1db3f9" />
        </linearGradient>
        <linearGradient id="New_Gradient_Swatch_1-2" x1="87.01" y1="351.93" x2="318.76" y2="120.18"
            xlink:href="#New_Gradient_Swatch_1" />
        <linearGradient id="New_Gradient_Swatch_1-3" x1="87.86" y1="973.89" x2="317.91" y2="743.84"
            xlink:href="#New_Gradient_Swatch_1" />
    </defs>
    <path class="cls-1"
        d="M202.89,1080.71v-6.84c96.17,0,174.4-78.24,174.4-174.41V201.11c0-96.17-78.23-174.4-174.4-174.4S28.48,104.94,28.48,201.11V516.59H21.64V201.11c0-99.94,81.31-181.25,181.25-181.25s181.24,81.31,181.24,181.25V899.46C384.13,999.4,302.83,1080.71,202.89,1080.71Z" />
    <path class="cls-2"
        d="M202.89,1057.58h0c-87,0-158.12-71.15-158.12-158.12V201.11c0-87,71.15-158.12,158.12-158.12h0A158.59,158.59,0,0,1,361,201.11V899.46C361,986.43,289.85,1057.58,202.89,1057.58Z" />
    <path class="cls-3" d="M342.86,325.83V203.44c0-77-63-140-140-140s-140,63-140,140V325.83Z" />
    <path class="cls-4" d="M62.91,768.8V891.19c0,77,63,140,140,140s140-63,140-140V768.8Z" /><text class="cls-5"
        transform="translate(151.94 271.09)">4</text>
    <path class="cls-6" d="M128.93,496.36h-6.66V501h6.12v3.45h-6.12v7.33H118V492.9h10.91Z" />
    <path class="cls-6"
        d="M139.36,512.1a7.24,7.24,0,0,1-5.29-1.89,7.8,7.8,0,0,1,.07-10.35,7.57,7.57,0,0,1,5.41-1.89,7.15,7.15,0,0,1,5.26,1.89,6.7,6.7,0,0,1,1.91,5,7.14,7.14,0,0,1-2,5.3A7.31,7.31,0,0,1,139.36,512.1Zm.11-11a2.8,2.8,0,0,0-2.29,1,4.5,4.5,0,0,0-.81,2.87q0,3.89,3.13,3.88t3-4Q142.48,501.15,139.47,501.15Z" />
    <path class="cls-6" d="M154.89,511.77h-4.15V491.82h4.15Z" />
    <path class="cls-6" d="M163.87,511.77h-4.16V491.82h4.16Z" />
    <path class="cls-6"
        d="M175.11,512.1a7.25,7.25,0,0,1-5.3-1.89,7.83,7.83,0,0,1,.07-10.35,7.57,7.57,0,0,1,5.41-1.89,7.14,7.14,0,0,1,5.26,1.89,6.7,6.7,0,0,1,1.91,5,7.14,7.14,0,0,1-2,5.3A7.3,7.3,0,0,1,175.11,512.1Zm.1-11a2.8,2.8,0,0,0-2.29,1,4.5,4.5,0,0,0-.81,2.87q0,3.89,3.13,3.88t3-4Q178.22,501.15,175.21,501.15Z" />
    <path class="cls-6"
        d="M206,498.3l-3.88,13.47h-4.37l-2-7.9a8.24,8.24,0,0,1-.22-1.72h-.08a10.73,10.73,0,0,1-.26,1.67l-2.13,7.95h-4.32l-3.8-13.47h4.23l1.86,8.78a12.49,12.49,0,0,1,.2,1.5h.08a8.38,8.38,0,0,1,.23-1.55l2.32-8.73h4l2.08,8.78a15.22,15.22,0,0,1,.18,1.53h.09c.05-.51.11-1,.21-1.53l1.75-8.78Z" />
    <path class="cls-6"
        d="M230.83,511.77h-4.14v-2.06h-.07a4.7,4.7,0,0,1-4.12,2.39q-4.68,0-4.68-5.67V498.3H222v7.76c0,1.9.76,2.85,2.27,2.85a2.25,2.25,0,0,0,1.79-.78,3.2,3.2,0,0,0,.67-2.13v-7.7h4.14Z" />
    <path class="cls-6"
        d="M234.77,511.41V508a8.35,8.35,0,0,0,2,.92,6.57,6.57,0,0,0,1.93.31,4,4,0,0,0,1.74-.31,1,1,0,0,0,.64-.92.81.81,0,0,0-.29-.65,2.53,2.53,0,0,0-.74-.46,7.6,7.6,0,0,0-1-.36,10.57,10.57,0,0,1-1-.35,10,10,0,0,1-1.42-.66,4,4,0,0,1-1-.81,3,3,0,0,1-.63-1.06,4.09,4.09,0,0,1-.22-1.43,3.67,3.67,0,0,1,.49-1.95,4.12,4.12,0,0,1,1.32-1.34,6,6,0,0,1,1.88-.76,9.89,9.89,0,0,1,2.2-.24,11.33,11.33,0,0,1,1.82.14,12.44,12.44,0,0,1,1.81.4v3.21a6.26,6.26,0,0,0-1.69-.69,6.83,6.83,0,0,0-1.77-.23,3.8,3.8,0,0,0-.77.07,2.83,2.83,0,0,0-.64.21,1.25,1.25,0,0,0-.43.35.88.88,0,0,0-.16.5.92.92,0,0,0,.24.63,2,2,0,0,0,.62.45,5.57,5.57,0,0,0,.85.34l.92.31a13.57,13.57,0,0,1,1.5.63,4.72,4.72,0,0,1,1.15.81,3,3,0,0,1,.74,1.08,4.27,4.27,0,0,1-.26,3.51,4.26,4.26,0,0,1-1.38,1.39,6.4,6.4,0,0,1-2,.77,11.16,11.16,0,0,1-2.33.25A11.91,11.91,0,0,1,234.77,511.41Z" />
    <path class="cls-6"
        d="M264,512.1a7.24,7.24,0,0,1-5.29-1.89,7.8,7.8,0,0,1,.07-10.35,7.57,7.57,0,0,1,5.41-1.89,7.15,7.15,0,0,1,5.26,1.89,6.7,6.7,0,0,1,1.91,5,7.14,7.14,0,0,1-2,5.3A7.31,7.31,0,0,1,264,512.1Zm.11-11a2.8,2.8,0,0,0-2.29,1A4.5,4.5,0,0,0,261,505q0,3.89,3.13,3.88t3-4Q267.11,501.15,264.1,501.15Z" />
    <path class="cls-6"
        d="M288.37,511.77h-4.14v-7.49c0-2.09-.74-3.13-2.24-3.13a2.22,2.22,0,0,0-1.77.83,3.12,3.12,0,0,0-.7,2.1v7.69h-4.16V498.3h4.16v2.13h.05A4.78,4.78,0,0,1,283.9,498q4.47,0,4.47,5.55Z" />
    <path class="cls-6" d="M139.89,544.09h-4.25V525.23h4.25Z" />
    <path class="cls-6"
        d="M158.1,544.09H154v-7.48c0-2.09-.75-3.13-2.24-3.13a2.21,2.21,0,0,0-1.77.83,3.12,3.12,0,0,0-.7,2.1v7.68h-4.16V530.62h4.16v2.14h.05a4.77,4.77,0,0,1,4.33-2.46q4.47,0,4.47,5.55Z" />
    <path class="cls-6"
        d="M161.83,543.74v-3.37a8.81,8.81,0,0,0,2,.92,6.79,6.79,0,0,0,1.92.31,4.19,4.19,0,0,0,1.75-.31,1,1,0,0,0,.63-.92.84.84,0,0,0-.29-.66,3,3,0,0,0-.74-.46,7.61,7.61,0,0,0-1-.35c-.36-.11-.71-.23-1-.36a10,10,0,0,1-1.42-.65,4,4,0,0,1-1-.81,3,3,0,0,1-.63-1.06,4.15,4.15,0,0,1-.22-1.44,3.66,3.66,0,0,1,.49-1.94,4,4,0,0,1,1.32-1.34,6.08,6.08,0,0,1,1.88-.76,10,10,0,0,1,2.2-.24,12.58,12.58,0,0,1,1.82.13,15.78,15.78,0,0,1,1.81.4V534a7,7,0,0,0-1.69-.69,7.29,7.29,0,0,0-1.77-.23,3.87,3.87,0,0,0-.77.08,2,2,0,0,0-.63.21,1.2,1.2,0,0,0-.44.35.87.87,0,0,0-.16.49.93.93,0,0,0,.24.64,2.16,2.16,0,0,0,.62.45,5.57,5.57,0,0,0,.85.34l.93.31a13.29,13.29,0,0,1,1.5.63,4.92,4.92,0,0,1,1.15.81,3,3,0,0,1,.73,1.07,3.91,3.91,0,0,1,.26,1.48,3.8,3.8,0,0,1-.52,2,4.14,4.14,0,0,1-1.38,1.38,6.18,6.18,0,0,1-2,.78,11.16,11.16,0,0,1-2.33.24A12.15,12.15,0,0,1,161.83,543.74Z" />
    <path class="cls-6"
        d="M184,543.94a6.25,6.25,0,0,1-2.78.48q-4.4,0-4.39-4.56v-6.17h-2.19v-3.07h2.19v-2.9l4.14-1.19v4.09h3v3.07h-3v5.45c0,1.4.56,2.1,1.67,2.1a2.89,2.89,0,0,0,1.36-.38Z" />
    <path class="cls-6"
        d="M198.9,544.09H195v-1.93h-.05a4.38,4.38,0,0,1-4,2.26,4.21,4.21,0,0,1-3.09-1.11,4,4,0,0,1-1.12-3q0-3.93,4.64-4.53l3.66-.49c0-1.47-.8-2.21-2.4-2.21a8.12,8.12,0,0,0-4.57,1.44v-3.13a10.35,10.35,0,0,1,2.37-.79,12.4,12.4,0,0,1,2.74-.34c3.84,0,5.77,1.91,5.77,5.74ZM195,538.62v-.91l-2.45.32c-1.35.18-2,.79-2,1.83A1.5,1.5,0,0,0,191,541a1.86,1.86,0,0,0,1.33.46,2.46,2.46,0,0,0,1.91-.81A2.93,2.93,0,0,0,195,538.62Z" />
    <path class="cls-6"
        d="M216.71,542.56a7.6,7.6,0,0,1-2.17,5.8,8.81,8.81,0,0,1-6.29,2.06,10.08,10.08,0,0,1-4.31-.77v-3.5a8.3,8.3,0,0,0,4.19,1.21,4.51,4.51,0,0,0,3.27-1.12,4,4,0,0,0,1.15-3v-1.07h-.05a4.63,4.63,0,0,1-4.19,2.26,5.06,5.06,0,0,1-4.1-1.81,7.42,7.42,0,0,1-1.51-4.87,8.15,8.15,0,0,1,1.69-5.43,5.49,5.49,0,0,1,4.43-2,4.08,4.08,0,0,1,3.68,1.89h.05v-1.57h4.16Zm-4.1-4.94v-1.06a3.26,3.26,0,0,0-.76-2.18,2.44,2.44,0,0,0-2-.9,2.55,2.55,0,0,0-2.17,1.08,5.12,5.12,0,0,0-.79,3,4.27,4.27,0,0,0,.75,2.66,2.46,2.46,0,0,0,2.06,1,2.54,2.54,0,0,0,2.08-1A4.1,4.1,0,0,0,212.61,537.62Z" />
    <path class="cls-6"
        d="M230.29,534.37a3.62,3.62,0,0,0-1.75-.4,2.53,2.53,0,0,0-2.12,1,4.31,4.31,0,0,0-.76,2.7v6.43H221.5V530.62h4.16v2.5h.05a3.61,3.61,0,0,1,3.56-2.73,2.56,2.56,0,0,1,1,.16Z" />
    <path class="cls-6"
        d="M244.75,544.09h-3.93v-1.93h0a4.39,4.39,0,0,1-4,2.26,4.2,4.2,0,0,1-3.08-1.11,4,4,0,0,1-1.13-3q0-3.93,4.65-4.53l3.65-.49c0-1.47-.79-2.21-2.39-2.21a8.17,8.17,0,0,0-4.58,1.44v-3.13a10.28,10.28,0,0,1,2.38-.79,12.33,12.33,0,0,1,2.74-.34q5.76,0,5.76,5.74Zm-3.91-5.47v-.91l-2.44.32c-1.35.18-2,.79-2,1.83a1.51,1.51,0,0,0,.5,1.16,1.84,1.84,0,0,0,1.33.46,2.46,2.46,0,0,0,1.91-.81A2.93,2.93,0,0,0,240.84,538.62Z" />
    <path class="cls-6"
        d="M270.75,544.09h-4.14v-7.68c0-1.95-.72-2.93-2.16-2.93a2,2,0,0,0-1.67.88,3.63,3.63,0,0,0-.65,2.2v7.53H258v-7.76c0-1.9-.71-2.85-2.12-2.85a2,2,0,0,0-1.71.84,3.75,3.75,0,0,0-.63,2.29v7.48h-4.16V530.62h4.16v2.11h0a5.07,5.07,0,0,1,4.35-2.43,3.87,3.87,0,0,1,3.91,2.51,5,5,0,0,1,4.53-2.51c2.92,0,4.39,1.8,4.39,5.42Z" />
    <path class="cls-6"
        d="M107.8,571.54h-.08a3.36,3.36,0,0,1-3.34,2.51,3.64,3.64,0,0,1-2.93-1.31,5.48,5.48,0,0,1-1.11-3.64,7.47,7.47,0,0,1,1.54-4.9,4.63,4.63,0,0,1,3.71-1.89,2.28,2.28,0,0,1,2.46,1.54h0l.13-1.31h3q-.59,5.61-.59,7.33c0,1.23.33,1.84,1,1.84s1.28-.46,1.73-1.39a8.26,8.26,0,0,0,.69-3.64,6.83,6.83,0,0,0-2-5,7.39,7.39,0,0,0-5.47-2,8.27,8.27,0,0,0-6.26,2.63,9,9,0,0,0-2.49,6.4,7.57,7.57,0,0,0,2.2,5.76,8.47,8.47,0,0,0,6.09,2.1,12.74,12.74,0,0,0,5.42-1.13v2.52a15.07,15.07,0,0,1-5.79,1,11.23,11.23,0,0,1-7.9-2.79,9.61,9.61,0,0,1-3-7.47,11,11,0,0,1,3.25-8.06,12.6,12.6,0,0,1,16-.73,8.42,8.42,0,0,1,2.93,6.68,8.08,8.08,0,0,1-1.79,5.47,5.63,5.63,0,0,1-4.43,2,3.16,3.16,0,0,1-2.12-.69A2.45,2.45,0,0,1,107.8,571.54Zm-1.75-6.94a2.21,2.21,0,0,0-1.93,1.34,6.35,6.35,0,0,0-.74,3.13,3.39,3.39,0,0,0,.5,2,1.58,1.58,0,0,0,1.31.7,2.15,2.15,0,0,0,2-1.33,7.61,7.61,0,0,0,.71-3.55,2.56,2.56,0,0,0-.49-1.66A1.62,1.62,0,0,0,106.05,564.6Z" />
    <path class="cls-6"
        d="M134.64,563l-5,13.47h-4.74L120.11,563h4.45l2.34,8.3a11.42,11.42,0,0,1,.46,2.4h.06a13.53,13.53,0,0,1,.48-2.32l2.4-8.38Z" />
    <path class="cls-6"
        d="M148.94,576.42H145v-1.93h0a4.41,4.41,0,0,1-4,2.26,4.2,4.2,0,0,1-3.08-1.11,4,4,0,0,1-1.13-3q0-3.92,4.65-4.52l3.65-.49c0-1.47-.79-2.21-2.39-2.21a8.17,8.17,0,0,0-4.58,1.44v-3.14a10.33,10.33,0,0,1,2.38-.78,12.39,12.39,0,0,1,2.74-.35q5.76,0,5.76,5.75ZM145,571V570l-2.44.32c-1.35.17-2,.78-2,1.83a1.51,1.51,0,0,0,.5,1.16,1.88,1.88,0,0,0,1.33.45,2.49,2.49,0,0,0,1.91-.8A2.94,2.94,0,0,0,145,571Z" />
    <path class="cls-6"
        d="M166.35,576.42H162.2v-2h-.06a4.7,4.7,0,0,1-4.12,2.38q-4.68,0-4.68-5.67V563h4.14v7.76c0,1.91.76,2.86,2.26,2.86a2.23,2.23,0,0,0,1.79-.78,3.16,3.16,0,0,0,.67-2.13V563h4.15Z" />
    <path class="cls-6" d="M175.32,576.42h-4.15V556.48h4.15Z" />
    <path class="cls-6"
        d="M188.29,576.26a6.09,6.09,0,0,1-2.78.49q-4.39,0-4.39-4.56V566h-2.19V563h2.19v-2.9l4.14-1.19V563h3V566h-3v5.44c0,1.41.56,2.11,1.67,2.11a2.89,2.89,0,0,0,1.36-.38Z" />
    <path class="cls-6"
        d="M204.77,563,199.3,577.5c-1.31,3.5-3.3,5.25-5.94,5.25a7.59,7.59,0,0,1-2.49-.34v-3.32a3.43,3.43,0,0,0,1.8.49,2.26,2.26,0,0,0,2.24-1.51l.71-1.67L190.15,563h4.6l2.51,8.2a10.71,10.71,0,0,1,.37,1.8h.05a13.05,13.05,0,0,1,.44-1.78l2.54-8.22Z" />
    <path class="cls-6"
        d="M212,574.86h-.05v7.76h-4.16V563h4.16v2H212a5.29,5.29,0,0,1,8.38-.56,7.67,7.67,0,0,1,1.42,4.89,8.27,8.27,0,0,1-1.66,5.4,5.43,5.43,0,0,1-4.43,2A4.2,4.2,0,0,1,212,574.86Zm-.11-5.53v1.08a3.45,3.45,0,0,0,.73,2.28,2.43,2.43,0,0,0,1.94.88,2.56,2.56,0,0,0,2.2-1.1,5.31,5.31,0,0,0,.78-3.11q0-3.55-2.76-3.55a2.61,2.61,0,0,0-2.09,1A3.87,3.87,0,0,0,211.86,569.33Z" />
    <path class="cls-6"
        d="M234.58,566.7a3.65,3.65,0,0,0-1.75-.41,2.5,2.5,0,0,0-2.12,1A4.31,4.31,0,0,0,230,570v6.43h-4.16V563H230v2.5H230a3.59,3.59,0,0,1,3.55-2.73,2.84,2.84,0,0,1,1,.15Z" />
    <path class="cls-6"
        d="M244.25,576.75a7.22,7.22,0,0,1-5.29-1.89,7.8,7.8,0,0,1,.07-10.35,7.54,7.54,0,0,1,5.41-1.89,7.17,7.17,0,0,1,5.26,1.89,6.71,6.71,0,0,1,1.9,5,7.1,7.1,0,0,1-2,5.3A7.32,7.32,0,0,1,244.25,576.75Zm.11-10.94a2.74,2.74,0,0,0-2.29,1,4.42,4.42,0,0,0-.82,2.87c0,2.58,1,3.88,3.13,3.88s3-1.33,3-4S246.36,565.81,244.36,565.81Z" />
    <path class="cls-6"
        d="M275.58,576.42h-3.93v-1.93h0a4.41,4.41,0,0,1-4,2.26,4.2,4.2,0,0,1-3.08-1.11,4,4,0,0,1-1.13-3q0-3.92,4.65-4.52l3.65-.49c0-1.47-.79-2.21-2.39-2.21a8.17,8.17,0,0,0-4.58,1.44v-3.14a10.33,10.33,0,0,1,2.38-.78,12.31,12.31,0,0,1,2.74-.35q5.76,0,5.76,5.75ZM271.67,571V570l-2.44.32c-1.35.17-2,.78-2,1.83a1.51,1.51,0,0,0,.5,1.16,1.88,1.88,0,0,0,1.33.45,2.49,2.49,0,0,0,1.91-.8A2.94,2.94,0,0,0,271.67,571Z" />
    <path class="cls-6"
        d="M293.2,576.42h-4.14v-7.48c0-2.09-.75-3.13-2.24-3.13a2.21,2.21,0,0,0-1.78.83,3.16,3.16,0,0,0-.69,2.1v7.68h-4.16V563h4.16v2.13h0a4.76,4.76,0,0,1,4.33-2.46q4.47,0,4.47,5.55Z" />
    <path class="cls-6"
        d="M311,576.42h-4.16v-1.85h-.05a4.68,4.68,0,0,1-4.17,2.18,5.12,5.12,0,0,1-4.07-1.78,7.42,7.42,0,0,1-1.53-5,8,8,0,0,1,1.69-5.35,5.53,5.53,0,0,1,4.45-2,3.79,3.79,0,0,1,3.63,1.87h.05v-8H311Zm-4.08-6.55v-1a3.15,3.15,0,0,0-.76-2.18,2.71,2.71,0,0,0-4.15.21,5.12,5.12,0,0,0-.77,3,4.36,4.36,0,0,0,.75,2.74,2.66,2.66,0,0,0,4.13-.05A4.2,4.2,0,0,0,306.91,569.87Z" />
    <path class="cls-6"
        d="M96.15,608.59a6.09,6.09,0,0,1-2.78.49q-4.4,0-4.39-4.56v-6.17H86.79v-3.07H89v-2.91l4.14-1.18v4.09h3v3.07h-3v5.44c0,1.41.56,2.11,1.67,2.11a2.89,2.89,0,0,0,1.36-.38Z" />
    <path class="cls-6"
        d="M111,608.75h-3.94v-1.93h0a4.38,4.38,0,0,1-4,2.26A4.21,4.21,0,0,1,99.93,608a4,4,0,0,1-1.12-3q0-3.91,4.64-4.52l3.66-.49c0-1.47-.8-2.21-2.39-2.21a8.19,8.19,0,0,0-4.58,1.43v-3.13a10.86,10.86,0,0,1,2.37-.79,13,13,0,0,1,2.74-.34q5.77,0,5.77,5.75Zm-3.91-5.47v-.91l-2.45.32c-1.35.17-2,.78-2,1.83a1.5,1.5,0,0,0,.49,1.16,1.91,1.91,0,0,0,1.34.45,2.44,2.44,0,0,0,1.9-.81A2.91,2.91,0,0,0,107.11,603.28Z" />
    <path class="cls-6"
        d="M128.83,607.21a7.61,7.61,0,0,1-2.17,5.81,8.81,8.81,0,0,1-6.29,2.06,9.91,9.91,0,0,1-4.31-.78v-3.5a8.23,8.23,0,0,0,4.2,1.21,4.52,4.52,0,0,0,3.26-1.11,4,4,0,0,0,1.16-3v-1.06h-.06a4.62,4.62,0,0,1-4.19,2.26,5,5,0,0,1-4.09-1.81,7.37,7.37,0,0,1-1.52-4.87,8.15,8.15,0,0,1,1.69-5.43,5.47,5.47,0,0,1,4.43-2,4.07,4.07,0,0,1,3.68,1.9h.06v-1.57h4.15Zm-4.1-4.93v-1.07A3.23,3.23,0,0,0,124,599a2.44,2.44,0,0,0-2-.9,2.57,2.57,0,0,0-2.18,1.07,5.14,5.14,0,0,0-.78,3,4.3,4.3,0,0,0,.75,2.67,2.43,2.43,0,0,0,2,1,2.52,2.52,0,0,0,2.08-1A4.06,4.06,0,0,0,124.73,602.28Z" />
    <path class="cls-6"
        d="M155.18,608.75H151v-2H151a4.7,4.7,0,0,1-4.12,2.38q-4.68,0-4.68-5.67v-8.13h4.14V603c0,1.91.75,2.86,2.26,2.86a2.22,2.22,0,0,0,1.79-.79A3.13,3.13,0,0,0,151,603v-7.71h4.15Z" />
    <path class="cls-6"
        d="M159.11,608.4V605a9,9,0,0,0,2,.92,6.83,6.83,0,0,0,1.93.3,4.19,4.19,0,0,0,1.74-.3,1,1,0,0,0,.64-.92.88.88,0,0,0-.29-.66,2.76,2.76,0,0,0-.74-.46,8.35,8.35,0,0,0-1-.35c-.36-.11-.7-.23-1-.36a10.36,10.36,0,0,1-1.41-.65,4,4,0,0,1-1-.81,3.36,3.36,0,0,1-.63-1.07,4.34,4.34,0,0,1-.22-1.43,3.72,3.72,0,0,1,.5-2,4.06,4.06,0,0,1,1.31-1.33,5.94,5.94,0,0,1,1.88-.76A9.42,9.42,0,0,1,165,595a12.47,12.47,0,0,1,1.81.14,14.06,14.06,0,0,1,1.82.4v3.21A6.75,6.75,0,0,0,167,598a7.29,7.29,0,0,0-1.77-.23,4.69,4.69,0,0,0-.77.07,2.67,2.67,0,0,0-.64.21,1.18,1.18,0,0,0-.43.36.78.78,0,0,0-.16.49.88.88,0,0,0,.24.63,2,2,0,0,0,.61.46,7.52,7.52,0,0,0,.85.34l.93.31a11.67,11.67,0,0,1,1.5.63,4.7,4.7,0,0,1,1.15.8,3.2,3.2,0,0,1,.74,1.08,4.36,4.36,0,0,1-.27,3.52,4,4,0,0,1-1.38,1.38,6.26,6.26,0,0,1-2,.78,11.19,11.19,0,0,1-2.34.24A12.24,12.24,0,0,1,159.11,608.4Z" />
    <path class="cls-6"
        d="M184,593.15a2.46,2.46,0,0,1-1.73-.62,2,2,0,0,1-.67-1.54,1.92,1.92,0,0,1,.67-1.52,2.49,2.49,0,0,1,1.73-.59,2.45,2.45,0,0,1,1.72.59,1.92,1.92,0,0,1,.67,1.52,2,2,0,0,1-.67,1.56A2.45,2.45,0,0,1,184,593.15Zm2.05,15.6h-4.16V595.28h4.16Z" />
    <path class="cls-6"
        d="M203.91,608.75h-4.15v-7.48c0-2.09-.74-3.13-2.23-3.13a2.23,2.23,0,0,0-1.78.82,3.21,3.21,0,0,0-.7,2.11v7.68H190.9V595.28h4.15v2.13h.06a4.75,4.75,0,0,1,4.32-2.46q4.48,0,4.48,5.55Z" />
    <path class="cls-6"
        d="M228.48,608.75h-3.94v-1.93h0a4.38,4.38,0,0,1-4,2.26,4.21,4.21,0,0,1-3.09-1.11,4,4,0,0,1-1.12-3q0-3.91,4.64-4.52l3.66-.49c0-1.47-.8-2.21-2.4-2.21a8.18,8.18,0,0,0-4.57,1.43v-3.13a10.86,10.86,0,0,1,2.37-.79,13,13,0,0,1,2.74-.34c3.84,0,5.77,1.92,5.77,5.75Zm-3.91-5.47v-.91l-2.45.32c-1.35.17-2,.78-2,1.83a1.5,1.5,0,0,0,.49,1.16,1.9,1.9,0,0,0,1.33.45,2.46,2.46,0,0,0,1.91-.81A2.91,2.91,0,0,0,224.57,603.28Z" />
    <path class="cls-6"
        d="M241,608.4V605A9,9,0,0,0,243,606a6.83,6.83,0,0,0,1.93.3,4.19,4.19,0,0,0,1.74-.3,1,1,0,0,0,.64-.92.88.88,0,0,0-.29-.66,2.76,2.76,0,0,0-.74-.46,8.35,8.35,0,0,0-1-.35c-.36-.11-.7-.23-1-.36a10.36,10.36,0,0,1-1.41-.65,4,4,0,0,1-1-.81,3.36,3.36,0,0,1-.63-1.07,4.34,4.34,0,0,1-.22-1.43,3.72,3.72,0,0,1,.5-2,4.16,4.16,0,0,1,1.31-1.33,5.94,5.94,0,0,1,1.88-.76,9.42,9.42,0,0,1,2.21-.25,12.47,12.47,0,0,1,1.81.14,14.06,14.06,0,0,1,1.82.4v3.21a6.75,6.75,0,0,0-1.69-.69,7.29,7.29,0,0,0-1.77-.23,4.69,4.69,0,0,0-.77.07,2.83,2.83,0,0,0-.64.21,1.18,1.18,0,0,0-.43.36.78.78,0,0,0-.16.49.88.88,0,0,0,.24.63,2,2,0,0,0,.61.46,7.52,7.52,0,0,0,.85.34l.93.31a11.67,11.67,0,0,1,1.5.63,4.7,4.7,0,0,1,1.15.8,3.2,3.2,0,0,1,.74,1.08,4.36,4.36,0,0,1-.27,3.52,4,4,0,0,1-1.38,1.38,6.26,6.26,0,0,1-2,.78,11.19,11.19,0,0,1-2.34.24A12.24,12.24,0,0,1,241,608.4Z" />
    <path class="cls-6"
        d="M263.15,608.59a6,6,0,0,1-2.77.49q-4.4,0-4.4-4.56v-6.17H253.8v-3.07H256v-2.91l4.15-1.18v4.09h3v3.07h-3v5.44c0,1.41.55,2.11,1.67,2.11a2.83,2.83,0,0,0,1.35-.38Z" />
    <path class="cls-6"
        d="M273.23,609.08a7.22,7.22,0,0,1-5.29-1.89,7.8,7.8,0,0,1,.07-10.35,7.56,7.56,0,0,1,5.41-1.89,7.15,7.15,0,0,1,5.26,1.89,6.71,6.71,0,0,1,1.91,5,7.11,7.11,0,0,1-2,5.3A7.32,7.32,0,0,1,273.23,609.08Zm.11-10.94a2.76,2.76,0,0,0-2.29,1,4.48,4.48,0,0,0-.82,2.87c0,2.58,1,3.88,3.13,3.88s3-1.33,3-4S275.35,598.14,273.34,598.14Z" />
    <path class="cls-6"
        d="M293.39,599a3.62,3.62,0,0,0-1.75-.41,2.52,2.52,0,0,0-2.12,1,4.31,4.31,0,0,0-.76,2.7v6.43H284.6V595.28h4.16v2.5h.05a3.6,3.6,0,0,1,3.55-2.74,2.81,2.81,0,0,1,1,.16Z" />
    <path class="cls-6"
        d="M309.47,595.28,304,609.83q-2,5.25-5.95,5.25a7.76,7.76,0,0,1-2.48-.34v-3.32a3.43,3.43,0,0,0,1.8.49,2.25,2.25,0,0,0,2.23-1.51l.71-1.67-5.47-13.45h4.61l2.51,8.2a10.51,10.51,0,0,1,.37,1.8h.05a12.86,12.86,0,0,1,.43-1.78l2.54-8.22Z" />
    <path class="cls-6"
        d="M315.13,609.05a2.48,2.48,0,0,1-1.74-.63,2.06,2.06,0,0,1-.68-1.55,2,2,0,0,1,.69-1.55,2.51,2.51,0,0,1,1.73-.61,2.48,2.48,0,0,1,1.72.61,2,2,0,0,1,.68,1.55,2.09,2.09,0,0,1-.67,1.57A2.44,2.44,0,0,1,315.13,609.05Zm2.16-19.16-.51,13h-3.37l-.49-13Z" />
    <circle class="cls-7" cx="202.89" cy="896.01" r="73.53" />
    <path class="cls-6"
        d="M202.89,858.05c12.36,0,13.82.05,18.7.27a25.51,25.51,0,0,1,8.6,1.6A15.37,15.37,0,0,1,239,868.7a25.84,25.84,0,0,1,1.59,8.6c.22,4.88.27,6.34.27,18.71s-.05,13.82-.27,18.7a25.84,25.84,0,0,1-1.59,8.6,15.37,15.37,0,0,1-8.79,8.78,25.51,25.51,0,0,1-8.6,1.6c-4.88.22-6.34.27-18.7.27s-13.83-.05-18.71-.27a25.57,25.57,0,0,1-8.6-1.6,15.31,15.31,0,0,1-8.78-8.78,25.51,25.51,0,0,1-1.6-8.6c-.22-4.88-.27-6.34-.27-18.7s0-13.83.27-18.71a25.51,25.51,0,0,1,1.6-8.6,15.31,15.31,0,0,1,8.78-8.78,25.57,25.57,0,0,1,8.6-1.6c4.88-.22,6.35-.27,18.71-.27m0-8.34c-12.58,0-14.15,0-19.09.28a34,34,0,0,0-11.24,2.15A23.67,23.67,0,0,0,159,865.68a34.26,34.26,0,0,0-2.15,11.24c-.22,4.94-.28,6.51-.28,19.09s.06,14.14.28,19.08A34.21,34.21,0,0,0,159,926.33a23.67,23.67,0,0,0,13.54,13.54A34,34,0,0,0,183.8,942c4.94.23,6.51.28,19.09.28s14.15,0,19.08-.28a34,34,0,0,0,11.24-2.15,23.67,23.67,0,0,0,13.54-13.54,34,34,0,0,0,2.15-11.24c.23-4.94.28-6.51.28-19.08s-.05-14.15-.28-19.09a34,34,0,0,0-2.15-11.24,23.67,23.67,0,0,0-13.54-13.54A34,34,0,0,0,222,850c-4.93-.23-6.51-.28-19.08-.28Z" />
    <path class="cls-6"
        d="M202.89,872.23A23.78,23.78,0,1,0,226.66,896,23.78,23.78,0,0,0,202.89,872.23Zm0,39.21A15.44,15.44,0,1,1,218.32,896,15.43,15.43,0,0,1,202.89,911.44Z" />
    <circle class="cls-6" cx="227.6" cy="871.29" r="5.56" />
</svg>