<svg id="Layer_3" data-name="Layer 3" xmlns="http://www.w3.org/2000/svg" xmlns:xlink="http://www.w3.org/1999/xlink"
    viewBox="0 0 399.95 1097.82">
    <defs>
        <style>
            .cls-1 {
                fill: url(#New_Gradient_Swatch_1);
            }

            .cls-2 {
                fill: #f0f0f0;
                opacity: 0.1;
            }

            .cls-3 {
                fill: url(#New_Gradient_Swatch_1-2);
            }

            .cls-4,
            .cls-7 {
                fill: none;
                stroke-miterlimit: 10;
            }

            .cls-4 {
                stroke-width: 2px;
                stroke: url(#New_Gradient_Swatch_1-3);
            }

            .cls-5 {
                font-size: 168.15px;
                font-family: SegoeUI-Bold, Segoe UI;
                font-weight: 700;
                letter-spacing: 0.05em;
            }

            .cls-5,
            .cls-6 {
                fill: #fff;
            }

            .cls-7 {
                stroke: #fff;
                stroke-width: 1.75px;
            }
        </style>
        <linearGradient id="New_Gradient_Swatch_1" x1="-101.75" y1="853.28" x2="465.39" y2="286.15"
            gradientUnits="userSpaceOnUse">
            <stop offset="0" stop-color="#a42e9a" />
            <stop offset="0.33" stop-color="#902ccc" />
            <stop offset="0.66" stop-color="#5951f6" />
            <stop offset="1" stop-color="#1db3f9" />
        </linearGradient>
        <linearGradient id="New_Gradient_Swatch_1-2" x1="85.67" y1="351.76" x2="315.4" y2="122.03"
            xlink:href="#New_Gradient_Swatch_1" />
        <linearGradient id="New_Gradient_Swatch_1-3" x1="84.81" y1="974.59" x2="316.26" y2="743.15"
            xlink:href="#New_Gradient_Swatch_1" />
    </defs>
    <path class="cls-1"
        d="M200.53,1080.71c-99.8,0-181-81.2-181-181V202.29c0-99.8,81.2-181,181-181v6.83c-96,0-174.16,78.14-174.16,174.17V899.71c0,96,78.13,174.17,174.16,174.17S374.7,995.75,374.7,899.71V517.35h6.84V899.71C381.54,999.51,300.34,1080.71,200.53,1080.71Z" />
    <path class="cls-2"
        d="M200.53,1057.62h0c-86.84,0-157.9-71.06-157.9-157.91V202.29c0-86.85,71.06-157.9,157.9-157.9h0a158.35,158.35,0,0,1,157.91,157.9V899.71C358.44,986.56,287.38,1057.62,200.53,1057.62Z" />
    <path class="cls-3" d="M340.32,326.84V204.62c0-76.89-62.9-139.79-139.79-139.79S60.74,127.73,60.74,204.62V326.84Z" />
    <path class="cls-4" d="M60.74,769.22V891.44c0,76.89,62.91,139.79,139.79,139.79s139.79-62.9,139.79-139.79V769.22Z" />
    <text class="cls-5" transform="translate(151.34 953.03)">5</text>
    <path class="cls-6" d="M131.08,497.15h-6.65v4.62h6.11v3.44h-6.11v7.32h-4.24V493.69h10.89Z" />
    <path class="cls-6"
        d="M141.5,512.86a7.22,7.22,0,0,1-5.29-1.89,7.8,7.8,0,0,1,.07-10.33,7.53,7.53,0,0,1,5.4-1.89,7.14,7.14,0,0,1,5.26,1.89,6.67,6.67,0,0,1,1.9,5,7.09,7.09,0,0,1-2,5.29A7.31,7.31,0,0,1,141.5,512.86Zm.1-10.93a2.77,2.77,0,0,0-2.28,1,4.44,4.44,0,0,0-.82,2.87q0,3.87,3.13,3.87t3-4Q144.61,501.94,141.6,501.93Z" />
    <path class="cls-6" d="M157,512.53h-4.15V492.62H157Z" />
    <path class="cls-6" d="M166,512.53h-4.15V492.62H166Z" />
    <path class="cls-6"
        d="M177.19,512.86A7.24,7.24,0,0,1,171.9,511a7.79,7.79,0,0,1,.08-10.33,7.53,7.53,0,0,1,5.4-1.89,7.13,7.13,0,0,1,5.25,1.89,6.67,6.67,0,0,1,1.9,5,7.09,7.09,0,0,1-2,5.29A7.3,7.3,0,0,1,177.19,512.86Zm.11-10.93a2.79,2.79,0,0,0-2.29,1,4.5,4.5,0,0,0-.81,2.87q0,3.87,3.12,3.87t3-4Q180.3,501.94,177.3,501.93Z" />
    <path class="cls-6"
        d="M208,499.08l-3.88,13.45h-4.36l-2-7.88a8.31,8.31,0,0,1-.23-1.72h-.08a9.65,9.65,0,0,1-.26,1.67l-2.13,7.93h-4.3L187,499.08h4.23l1.85,8.77a12.49,12.49,0,0,1,.2,1.5h.08a8.38,8.38,0,0,1,.23-1.55l2.32-8.72h4l2.08,8.77a15.22,15.22,0,0,1,.18,1.53h.09c0-.51.12-1,.21-1.53l1.75-8.77Z" />
    <path class="cls-6"
        d="M232.84,512.53H228.7v-2h-.07a4.67,4.67,0,0,1-4.11,2.38q-4.67,0-4.67-5.66v-8.12H224v7.75c0,1.9.76,2.85,2.26,2.85a2.24,2.24,0,0,0,1.79-.78,3.13,3.13,0,0,0,.67-2.12v-7.7h4.14Z" />
    <path class="cls-6"
        d="M236.77,512.18v-3.37a8.35,8.35,0,0,0,2,.92,6.83,6.83,0,0,0,1.93.3,4.19,4.19,0,0,0,1.74-.3,1,1,0,0,0,.64-.92.84.84,0,0,0-.29-.65,2.59,2.59,0,0,0-.75-.46,9.41,9.41,0,0,0-1-.36c-.36-.1-.7-.22-1-.35a10.36,10.36,0,0,1-1.41-.65,4,4,0,0,1-1-.81,3,3,0,0,1-.63-1.07,4.09,4.09,0,0,1-.22-1.43,3.66,3.66,0,0,1,.49-1.94,4,4,0,0,1,1.32-1.33,6,6,0,0,1,1.88-.77,9.82,9.82,0,0,1,2.2-.24,13.09,13.09,0,0,1,3.62.54v3.2a7,7,0,0,0-1.69-.69,7.27,7.27,0,0,0-1.76-.23,3.71,3.71,0,0,0-.77.08,2.29,2.29,0,0,0-.64.21,1.16,1.16,0,0,0-.43.35.8.8,0,0,0-.16.49.93.93,0,0,0,.24.64,2.1,2.1,0,0,0,.61.45,6,6,0,0,0,.85.34l.93.31a11,11,0,0,1,1.49.63,4.7,4.7,0,0,1,1.15.8,3.2,3.2,0,0,1,.74,1.08,4.27,4.27,0,0,1-.26,3.51,4.14,4.14,0,0,1-1.38,1.38,6.41,6.41,0,0,1-2,.78,11.09,11.09,0,0,1-2.33.24A12.14,12.14,0,0,1,236.77,512.18Z" />
    <path class="cls-6"
        d="M261.65,497a2.44,2.44,0,0,1-1.72-.62,2,2,0,0,1-.67-1.53,1.94,1.94,0,0,1,.67-1.53,2.8,2.8,0,0,1,3.44,0,1.94,1.94,0,0,1,.67,1.53,2,2,0,0,1-.67,1.55A2.45,2.45,0,0,1,261.65,497Zm2.05,15.58h-4.16V499.08h4.16Z" />
    <path class="cls-6"
        d="M281.5,512.53h-4.14v-7.47c0-2.09-.74-3.13-2.23-3.13a2.21,2.21,0,0,0-1.77.83,3.12,3.12,0,0,0-.7,2.1v7.67h-4.15V499.08h4.15v2.13h0a4.75,4.75,0,0,1,4.32-2.46q4.47,0,4.47,5.54Z" />
    <path class="cls-6" d="M105.49,529.43h-5.37v15.39H95.86V529.43H90.51V526h15Z" />
    <path class="cls-6"
        d="M121,539.27h-8.77c.14,2,1.37,2.93,3.69,2.93a7.2,7.2,0,0,0,3.9-1.05v3a10.32,10.32,0,0,1-4.85,1,6.25,6.25,0,0,1-6.86-6.84,7.21,7.21,0,0,1,2-5.31,6.49,6.49,0,0,1,4.78-2,5.89,5.89,0,0,1,4.55,1.74,6.71,6.71,0,0,1,1.61,4.74Zm-3.85-2.55c0-1.92-.78-2.89-2.34-2.89a2.23,2.23,0,0,0-1.72.83,3.76,3.76,0,0,0-.89,2.06Z" />
    <path class="cls-6" d="M129,544.82h-4.15V524.9H129Z" />
    <path class="cls-6"
        d="M145.86,539.27h-8.78c.14,2,1.37,2.93,3.7,2.93a7.23,7.23,0,0,0,3.9-1.05v3a10.35,10.35,0,0,1-4.85,1A6.25,6.25,0,0,1,133,538.3a7.21,7.21,0,0,1,1.95-5.31,6.48,6.48,0,0,1,4.78-2,5.89,5.89,0,0,1,4.55,1.74,6.76,6.76,0,0,1,1.61,4.74ZM142,536.72c0-1.92-.78-2.89-2.34-2.89a2.26,2.26,0,0,0-1.73.83,3.75,3.75,0,0,0-.88,2.06Z" />
    <path class="cls-6"
        d="M162.84,543.28a7.64,7.64,0,0,1-2.17,5.8q-2.17,2.05-6.28,2a9.93,9.93,0,0,1-4.31-.77v-3.49a8.28,8.28,0,0,0,4.19,1.2,4.52,4.52,0,0,0,3.26-1.11,4,4,0,0,0,1.16-3v-1.06h-.06a4.63,4.63,0,0,1-4.19,2.25,5,5,0,0,1-4.08-1.81,7.34,7.34,0,0,1-1.51-4.86,8.17,8.17,0,0,1,1.68-5.42,5.48,5.48,0,0,1,4.43-2,4.08,4.08,0,0,1,3.67,1.89h.06v-1.57h4.15Zm-4.1-4.93v-1.06a3.26,3.26,0,0,0-.76-2.18,2.47,2.47,0,0,0-2-.9,2.55,2.55,0,0,0-2.17,1.08,5.12,5.12,0,0,0-.79,3,4.29,4.29,0,0,0,.75,2.66,2.45,2.45,0,0,0,2.05,1,2.52,2.52,0,0,0,2.08-1A4.06,4.06,0,0,0,158.74,538.35Z" />
    <path class="cls-6"
        d="M176.4,535.11a3.62,3.62,0,0,0-1.75-.41,2.5,2.5,0,0,0-2.11,1,4.31,4.31,0,0,0-.77,2.7v6.43h-4.15V531.36h4.15v2.5h.06a3.58,3.58,0,0,1,3.54-2.73,2.84,2.84,0,0,1,1,.15Z" />
    <path class="cls-6"
        d="M190.84,544.82h-3.93v-1.93h0a4.39,4.39,0,0,1-4,2.25,4.2,4.2,0,0,1-3.08-1.11,4,4,0,0,1-1.12-3c0-2.61,1.54-4.11,4.64-4.52l3.65-.48c0-1.47-.8-2.21-2.39-2.21a8.18,8.18,0,0,0-4.57,1.43v-3.12a10,10,0,0,1,2.37-.79,12.26,12.26,0,0,1,2.74-.34q5.74,0,5.75,5.74Zm-3.9-5.47v-.91l-2.44.32c-1.35.18-2,.78-2,1.83a1.53,1.53,0,0,0,.49,1.16,1.92,1.92,0,0,0,1.34.45,2.44,2.44,0,0,0,1.9-.81A2.91,2.91,0,0,0,186.94,539.35Z" />
    <path class="cls-6"
        d="M216.8,544.82h-4.13v-7.68c0-1.95-.72-2.93-2.16-2.93a2,2,0,0,0-1.67.89,3.58,3.58,0,0,0-.64,2.19v7.53h-4.15v-7.75c0-1.91-.71-2.86-2.12-2.86a2,2,0,0,0-1.7.85,3.72,3.72,0,0,0-.64,2.28v7.48h-4.15V531.36h4.15v2.11h.06A5,5,0,0,1,204,531a3.88,3.88,0,0,1,3.91,2.5,5,5,0,0,1,4.52-2.5q4.38,0,4.38,5.41Z" />
    <path class="cls-6"
        d="M238.92,528.08a4.21,4.21,0,0,0-1.54-.32c-1.33,0-2,.73-2,2.17v1.43h3.07v3.06h-3.07v10.4h-4.14v-10.4H229v-3.06h2.26V529.7a4.84,4.84,0,0,1,1.5-3.71,5.67,5.67,0,0,1,4.07-1.4,7,7,0,0,1,2.1.26Z" />
    <path class="cls-6"
        d="M248.19,545.14a7.2,7.2,0,0,1-5.29-1.88,7.78,7.78,0,0,1,.07-10.34,7.53,7.53,0,0,1,5.4-1.88,7.16,7.16,0,0,1,5.26,1.88,6.75,6.75,0,0,1,1.9,5,7.11,7.11,0,0,1-2,5.29A7.31,7.31,0,0,1,248.19,545.14Zm.1-10.93a2.75,2.75,0,0,0-2.28,1,4.41,4.41,0,0,0-.82,2.86c0,2.58,1,3.88,3.13,3.88s3-1.33,3-4S250.3,534.21,248.29,534.21Z" />
    <path class="cls-6"
        d="M268.32,535.11a3.65,3.65,0,0,0-1.75-.41,2.53,2.53,0,0,0-2.12,1,4.37,4.37,0,0,0-.76,2.7v6.43h-4.15V531.36h4.15v2.5h.06a3.58,3.58,0,0,1,3.54-2.73,2.84,2.84,0,0,1,1,.15Z" />
    <path class="cls-6"
        d="M291.5,544.82h-3.93v-1.93h-.05a4.39,4.39,0,0,1-4,2.25,4.2,4.2,0,0,1-3.08-1.11,4,4,0,0,1-1.12-3c0-2.61,1.54-4.11,4.63-4.52l3.66-.48c0-1.47-.8-2.21-2.39-2.21a8.22,8.22,0,0,0-4.58,1.43v-3.12a10.35,10.35,0,0,1,2.37-.79,12.4,12.4,0,0,1,2.74-.34q5.76,0,5.76,5.74Zm-3.9-5.47v-.91l-2.45.32c-1.35.18-2,.78-2,1.83a1.5,1.5,0,0,0,.49,1.16,1.92,1.92,0,0,0,1.34.45,2.44,2.44,0,0,0,1.9-.81A2.91,2.91,0,0,0,287.6,539.35Z" />
    <path class="cls-6" d="M300.25,544.82H296.1V524.9h4.15Z" />
    <path class="cls-6" d="M309.22,544.82h-4.16V524.9h4.16Z" />
    <path class="cls-6"
        d="M79.88,577.1H75.74v-7.47c0-2.09-.74-3.13-2.23-3.13a2.18,2.18,0,0,0-1.77.83,3.12,3.12,0,0,0-.7,2.1v7.67H66.89V563.65H71v2.13h0a4.75,4.75,0,0,1,4.32-2.46q4.47,0,4.47,5.54Z" />
    <path class="cls-6"
        d="M96.57,571.56H87.79q.21,2.93,3.7,2.93a7.23,7.23,0,0,0,3.9-1v3a10.22,10.22,0,0,1-4.85,1,6.27,6.27,0,0,1-6.86-6.85,7.17,7.17,0,0,1,1.95-5.3,6.45,6.45,0,0,1,4.78-2A5.86,5.86,0,0,1,95,565.07a6.72,6.72,0,0,1,1.61,4.74ZM92.72,569c0-1.93-.78-2.89-2.34-2.89a2.23,2.23,0,0,0-1.73.83,3.75,3.75,0,0,0-.88,2.06Z" />
    <path class="cls-6"
        d="M119.84,563.65,116,577.1H111.6l-2-7.88a7.7,7.7,0,0,1-.22-1.72h-.08a9.54,9.54,0,0,1-.27,1.67l-2.12,7.93h-4.31l-3.8-13.45h4.23l1.85,8.77a10.54,10.54,0,0,1,.2,1.5h.08a7.55,7.55,0,0,1,.24-1.55l2.31-8.72h4l2.08,8.77a15.22,15.22,0,0,1,.18,1.53H114q.07-.76.21-1.53l1.75-8.77Z" />
    <path class="cls-6"
        d="M122.25,576.75v-3.37a8.75,8.75,0,0,0,2,.92,6.82,6.82,0,0,0,1.92.3,4.2,4.2,0,0,0,1.75-.3,1,1,0,0,0,.63-.92.81.81,0,0,0-.29-.65,2.53,2.53,0,0,0-.74-.46,7.6,7.6,0,0,0-1-.36c-.36-.1-.7-.22-1-.35a10.36,10.36,0,0,1-1.41-.65,4.51,4.51,0,0,1-1-.81,3.36,3.36,0,0,1-.63-1.07,4.35,4.35,0,0,1-.21-1.43,3.66,3.66,0,0,1,.49-1.94,4.09,4.09,0,0,1,1.31-1.34,6.45,6.45,0,0,1,1.88-.76,10,10,0,0,1,2.2-.24,12.61,12.61,0,0,1,1.82.14,12.74,12.74,0,0,1,1.81.4v3.2a7.15,7.15,0,0,0-1.69-.69,7.29,7.29,0,0,0-1.77-.23,3.69,3.69,0,0,0-.76.08,1.93,1.93,0,0,0-.64.21,1.2,1.2,0,0,0-.44.35.86.86,0,0,0-.15.49.92.92,0,0,0,.23.63,2.13,2.13,0,0,0,.62.46,7.52,7.52,0,0,0,.85.34l.92.31a10.58,10.58,0,0,1,1.5.63,4.7,4.7,0,0,1,1.15.8,3.2,3.2,0,0,1,.74,1.08,3.83,3.83,0,0,1,.25,1.47,3.77,3.77,0,0,1-.52,2,4,4,0,0,1-1.38,1.38,6.26,6.26,0,0,1-2,.78,11.09,11.09,0,0,1-2.33.24A12.14,12.14,0,0,1,122.25,576.75Z" />
    <path class="cls-6"
        d="M156.21,577.1h-3.92v-1.93h-.06a4.36,4.36,0,0,1-4,2.26,4.18,4.18,0,0,1-3.08-1.11,4,4,0,0,1-1.13-3q0-3.92,4.64-4.52l3.65-.49c0-1.47-.79-2.21-2.39-2.21a8.14,8.14,0,0,0-4.57,1.44v-3.13a10.35,10.35,0,0,1,2.37-.79,12.33,12.33,0,0,1,2.74-.34c3.84,0,5.75,1.91,5.75,5.74Zm-3.9-5.46v-.91l-2.44.31c-1.35.18-2,.79-2,1.83a1.5,1.5,0,0,0,.49,1.16,1.9,1.9,0,0,0,1.33.46,2.46,2.46,0,0,0,1.91-.81A2.92,2.92,0,0,0,152.31,571.64Z" />
    <path class="cls-6"
        d="M173.81,577.1h-4.14v-7.47c0-2.09-.74-3.13-2.23-3.13a2.18,2.18,0,0,0-1.77.83,3.12,3.12,0,0,0-.7,2.1v7.67h-4.15V563.65H165v2.13H165a4.75,4.75,0,0,1,4.32-2.46q4.47,0,4.47,5.54Z" />
    <path class="cls-6"
        d="M191.58,577.1h-4.16v-1.85h0a4.65,4.65,0,0,1-4.16,2.18,5.09,5.09,0,0,1-4.06-1.78,7.36,7.36,0,0,1-1.54-5,8,8,0,0,1,1.7-5.35,5.53,5.53,0,0,1,4.44-2,3.76,3.76,0,0,1,3.62,1.87h0v-8h4.16Zm-4.08-6.54v-1a3.15,3.15,0,0,0-.76-2.18,2.69,2.69,0,0,0-4.14.21,5.12,5.12,0,0,0-.77,3,4.35,4.35,0,0,0,.75,2.73,2.48,2.48,0,0,0,2.07,1,2.52,2.52,0,0,0,2.06-1A4.23,4.23,0,0,0,187.5,570.56Z" />
    <path class="cls-6"
        d="M218.29,583.29h-4.15v-8h0a4.63,4.63,0,0,1-4.14,2.18,5.15,5.15,0,0,1-4.08-1.77,7.29,7.29,0,0,1-1.54-5,8.05,8.05,0,0,1,1.69-5.37,5.5,5.5,0,0,1,4.41-2,4,4,0,0,1,3.66,1.89h0v-1.56h4.15Zm-4.07-12.61V569.6a3.33,3.33,0,0,0-.76-2.21,2.49,2.49,0,0,0-2-.89,2.55,2.55,0,0,0-2.17,1.08,5.09,5.09,0,0,0-.79,3,4.27,4.27,0,0,0,.77,2.7,2.42,2.42,0,0,0,2,1,2.57,2.57,0,0,0,2.11-1A4,4,0,0,0,214.22,570.68Z" />
    <path class="cls-6"
        d="M235.88,577.1h-4.13v-2.05h-.07a4.67,4.67,0,0,1-4.11,2.38q-4.68,0-4.68-5.66v-8.12H227v7.75c0,1.9.75,2.85,2.26,2.85a2.25,2.25,0,0,0,1.79-.78,3.19,3.19,0,0,0,.67-2.12v-7.7h4.13Z" />
    <path class="cls-6"
        d="M252.78,571.56H244q.21,2.93,3.69,2.93a7.2,7.2,0,0,0,3.9-1v3a10.19,10.19,0,0,1-4.85,1,6.27,6.27,0,0,1-6.85-6.85,7.16,7.16,0,0,1,1.94-5.3,6.46,6.46,0,0,1,4.78-2,5.86,5.86,0,0,1,4.55,1.75,6.68,6.68,0,0,1,1.61,4.74ZM248.93,569c0-1.93-.78-2.89-2.33-2.89a2.2,2.2,0,0,0-1.73.83A3.76,3.76,0,0,0,244,569Z" />
    <path class="cls-6"
        d="M255.69,576.75v-3.37a8.94,8.94,0,0,0,2,.92,6.83,6.83,0,0,0,1.93.3,4.19,4.19,0,0,0,1.74-.3,1,1,0,0,0,.64-.92.84.84,0,0,0-.29-.65,2.59,2.59,0,0,0-.75-.46,7.6,7.6,0,0,0-1-.36,10.37,10.37,0,0,1-1-.35,10,10,0,0,1-1.42-.65,4.44,4.44,0,0,1-1-.81,3,3,0,0,1-.63-1.07,4.09,4.09,0,0,1-.22-1.43,3.75,3.75,0,0,1,.49-1.94,4,4,0,0,1,1.32-1.34,6.23,6.23,0,0,1,1.88-.76,9.82,9.82,0,0,1,2.2-.24,13.09,13.09,0,0,1,3.62.54v3.2a7,7,0,0,0-1.69-.69,7.21,7.21,0,0,0-1.76-.23,3.79,3.79,0,0,0-.77.08,2.09,2.09,0,0,0-.64.21,1.16,1.16,0,0,0-.43.35.8.8,0,0,0-.16.49.88.88,0,0,0,.24.63,2,2,0,0,0,.61.46,7.52,7.52,0,0,0,.85.34l.93.31a11.67,11.67,0,0,1,1.5.63,4.63,4.63,0,0,1,1.14.8,3.2,3.2,0,0,1,.74,1.08,4.27,4.27,0,0,1-.26,3.51,4.14,4.14,0,0,1-1.38,1.38,6.41,6.41,0,0,1-2,.78,11,11,0,0,1-2.33.24A12.14,12.14,0,0,1,255.69,576.75Z" />
    <path class="cls-6"
        d="M277.86,576.94a6.07,6.07,0,0,1-2.77.49q-4.39,0-4.39-4.56v-6.16h-2.18v-3.06h2.18v-2.91l4.14-1.18v4.09h3v3.06h-3v5.44c0,1.4.55,2.1,1.66,2.1a2.89,2.89,0,0,0,1.36-.38Z" />
    <path class="cls-6"
        d="M283.62,561.52a2.48,2.48,0,0,1-1.73-.62,2,2,0,0,1-.67-1.53,2,2,0,0,1,.67-1.53,2.56,2.56,0,0,1,1.73-.59,2.49,2.49,0,0,1,1.72.59,1.94,1.94,0,0,1,.67,1.53,2,2,0,0,1-.67,1.55A2.45,2.45,0,0,1,283.62,561.52Zm2.05,15.58h-4.16V563.65h4.16Z" />
    <path class="cls-6"
        d="M296.89,577.43a7.22,7.22,0,0,1-5.29-1.89,7.81,7.81,0,0,1,.07-10.34,7.57,7.57,0,0,1,5.4-1.88,7.17,7.17,0,0,1,5.26,1.88,6.71,6.71,0,0,1,1.9,5,7.09,7.09,0,0,1-2,5.29A7.3,7.3,0,0,1,296.89,577.43Zm.1-10.93a2.77,2.77,0,0,0-2.28,1,4.49,4.49,0,0,0-.82,2.86c0,2.59,1.05,3.88,3.13,3.88s3-1.33,3-4S299,566.5,297,566.5Z" />
    <path class="cls-6"
        d="M321.24,577.1H317.1v-7.47c0-2.09-.75-3.13-2.24-3.13a2.19,2.19,0,0,0-1.77.83,3.17,3.17,0,0,0-.7,2.1v7.67h-4.15V563.65h4.15v2.13h.06a4.75,4.75,0,0,1,4.32-2.46q4.47,0,4.47,5.54Z" />
    <path class="cls-6"
        d="M325,576.75v-3.37a8.75,8.75,0,0,0,2,.92,6.82,6.82,0,0,0,1.92.3,4.2,4.2,0,0,0,1.75-.3,1,1,0,0,0,.63-.92.81.81,0,0,0-.29-.65,2.53,2.53,0,0,0-.74-.46,7.6,7.6,0,0,0-1-.36c-.36-.1-.7-.22-1-.35a10.36,10.36,0,0,1-1.41-.65,4.51,4.51,0,0,1-1-.81,3.36,3.36,0,0,1-.63-1.07,4.35,4.35,0,0,1-.21-1.43,3.66,3.66,0,0,1,.49-1.94,4.09,4.09,0,0,1,1.31-1.34,6.45,6.45,0,0,1,1.88-.76,10,10,0,0,1,2.2-.24,12.61,12.61,0,0,1,1.82.14,12.74,12.74,0,0,1,1.81.4v3.2a7.15,7.15,0,0,0-1.69-.69,7.29,7.29,0,0,0-1.77-.23,3.69,3.69,0,0,0-.76.08,1.93,1.93,0,0,0-.64.21,1.2,1.2,0,0,0-.44.35.86.86,0,0,0-.15.49.92.92,0,0,0,.23.63,2.13,2.13,0,0,0,.62.46,7.52,7.52,0,0,0,.85.34l.92.31a10.58,10.58,0,0,1,1.5.63,4.7,4.7,0,0,1,1.15.8,3.2,3.2,0,0,1,.74,1.08,3.83,3.83,0,0,1,.25,1.47,3.77,3.77,0,0,1-.52,2,4,4,0,0,1-1.38,1.38,6.26,6.26,0,0,1-2,.78,11.09,11.09,0,0,1-2.33.24A12.14,12.14,0,0,1,325,576.75Z" />
    <path class="cls-6"
        d="M106.52,609.23a6.2,6.2,0,0,1-2.77.48q-4.4,0-4.39-4.56V599H97.18v-3.06h2.18V593l4.14-1.18v4.08h3V599h-3v5.44c0,1.4.55,2.1,1.67,2.1a2.77,2.77,0,0,0,1.35-.38Z" />
    <path class="cls-6"
        d="M112,609.71a2.41,2.41,0,0,1-1.71-.63,2,2,0,0,1-.68-1.55,2,2,0,0,1,.7-1.55,2.6,2.6,0,0,1,1.75-.6,2.48,2.48,0,0,1,1.74.61,2.11,2.11,0,0,1,0,3.11A2.59,2.59,0,0,1,112,609.71Z" />
    <path class="cls-6"
        d="M140.14,609.39H136v-7.68c0-2-.72-2.93-2.16-2.93a2,2,0,0,0-1.67.88,3.63,3.63,0,0,0-.64,2.2v7.53h-4.15v-7.76c0-1.9-.71-2.85-2.12-2.85a2,2,0,0,0-1.7.84,3.77,3.77,0,0,0-.63,2.29v7.48h-4.16V595.93h4.16V598h0a5.06,5.06,0,0,1,4.35-2.42,3.87,3.87,0,0,1,3.9,2.5,5,5,0,0,1,4.52-2.5q4.38,0,4.38,5.41Z" />
    <path class="cls-6"
        d="M156.83,603.84h-8.77q.21,2.92,3.69,2.93a7.2,7.2,0,0,0,3.9-1v3a10.32,10.32,0,0,1-4.85,1,6.25,6.25,0,0,1-6.85-6.84,7.2,7.2,0,0,1,1.94-5.31,6.49,6.49,0,0,1,4.78-1.95,5.89,5.89,0,0,1,4.55,1.74,6.71,6.71,0,0,1,1.61,4.74ZM153,601.29c0-1.92-.78-2.89-2.33-2.89a2.23,2.23,0,0,0-1.73.83,3.76,3.76,0,0,0-.89,2.06Z" />
    <path class="cls-6" d="M171.12,590.55l-9.19,22h-3.7l9.14-22Z" />
    <path class="cls-6"
        d="M186.68,595.93l-5,13.46h-4.73l-4.77-13.46h4.44l2.34,8.29a12.15,12.15,0,0,1,.46,2.39h.05a13.8,13.8,0,0,1,.49-2.31l2.39-8.37Z" />
    <path class="cls-6"
        d="M201,609.39H197v-1.94H197a4.38,4.38,0,0,1-4,2.26,4.2,4.2,0,0,1-3.08-1.11,4,4,0,0,1-1.12-3c0-2.61,1.54-4.12,4.64-4.52l3.65-.48c0-1.48-.8-2.21-2.39-2.21a8.18,8.18,0,0,0-4.57,1.43v-3.13a10.07,10.07,0,0,1,2.37-.78,12.26,12.26,0,0,1,2.74-.34q5.74,0,5.75,5.74Zm-3.9-5.47V603l-2.44.32c-1.35.17-2,.78-2,1.82a1.51,1.51,0,0,0,.5,1.17,1.88,1.88,0,0,0,1.33.45,2.44,2.44,0,0,0,1.9-.81A2.92,2.92,0,0,0,197.06,603.92Z" />
    <path class="cls-6"
        d="M218.34,609.39h-4.13v-2h-.07a4.69,4.69,0,0,1-4.11,2.37c-3.12,0-4.68-1.88-4.68-5.66v-8.12h4.14v7.75c0,1.9.75,2.85,2.26,2.85a2.25,2.25,0,0,0,1.79-.78,3.19,3.19,0,0,0,.67-2.12v-7.7h4.13Z" />
    <path class="cls-6" d="M227.31,609.39h-4.15V589.47h4.15Z" />
    <path class="cls-6"
        d="M240.25,609.23a6.2,6.2,0,0,1-2.77.48q-4.39,0-4.39-4.56V599h-2.18v-3.06h2.18V593l4.14-1.18v4.08h3V599h-3v5.44c0,1.4.56,2.1,1.67,2.1a2.72,2.72,0,0,0,1.35-.38Z" />
    <path class="cls-6"
        d="M256.72,595.93l-5.47,14.53c-1.31,3.5-3.29,5.24-5.94,5.24a7.57,7.57,0,0,1-2.48-.34v-3.31a3.43,3.43,0,0,0,1.8.49,2.25,2.25,0,0,0,2.23-1.51l.71-1.67-5.46-13.43h4.6l2.51,8.19a10.78,10.78,0,0,1,.36,1.8h.06a11.56,11.56,0,0,1,.43-1.78l2.53-8.21Z" />
    <path class="cls-6"
        d="M263.91,607.82h-.06v7.75H259.7V595.93h4.15v2h.06a5.28,5.28,0,0,1,8.36-.56,7.62,7.62,0,0,1,1.42,4.88,8.27,8.27,0,0,1-1.66,5.4,5.44,5.44,0,0,1-4.42,2A4.18,4.18,0,0,1,263.91,607.82Zm-.12-5.52v1.08a3.4,3.4,0,0,0,.73,2.27,2.4,2.4,0,0,0,1.94.88,2.56,2.56,0,0,0,2.2-1.09,5.31,5.31,0,0,0,.78-3.11c0-2.36-.92-3.55-2.76-3.55a2.6,2.6,0,0,0-2.08,1A3.82,3.82,0,0,0,263.79,602.3Z" />
    <path class="cls-6"
        d="M286.48,599.68a3.62,3.62,0,0,0-1.75-.41,2.51,2.51,0,0,0-2.11,1,4.31,4.31,0,0,0-.76,2.7v6.43h-4.15V595.93h4.15v2.5h.05a3.59,3.59,0,0,1,3.55-2.73,2.78,2.78,0,0,1,1,.15Z" />
    <path class="cls-6"
        d="M296.14,609.71a7.24,7.24,0,0,1-5.29-1.88,7.81,7.81,0,0,1,.07-10.34,7.56,7.56,0,0,1,5.4-1.88,7.13,7.13,0,0,1,5.26,1.88,6.71,6.71,0,0,1,1.9,5,7.11,7.11,0,0,1-2,5.29A7.29,7.29,0,0,1,296.14,609.71Zm.11-10.93a2.75,2.75,0,0,0-2.29,1,4.45,4.45,0,0,0-.81,2.86q0,3.87,3.12,3.87c2,0,3-1.32,3-4Q299.25,598.79,296.25,598.78Z" />
    <circle class="cls-7" cx="200.53" cy="207.16" r="73.43" />
    <path class="cls-6"
        d="M236.28,177.34a1.69,1.69,0,0,0-1.14-1.25,5.87,5.87,0,0,0-3.08.22s-68.63,24.67-72.55,27.4c-.84.59-1.13.93-1.27,1.33-.67,2,1.44,2.8,1.44,2.8l17.68,5.77a2,2,0,0,0,.9-.06c4-2.54,40.48-25.56,42.59-26.33.33-.1.57,0,.51.24-.84,2.95-32.51,31.1-32.51,31.1a1.71,1.71,0,0,0-.2.33l0,0L187,236.41s-.69,5.37,4.68,0c3.8-3.8,7.47-7,9.3-8.51,6.08,4.2,12.63,8.84,15.45,11.27a4.91,4.91,0,0,0,3.59,1.38c2.68-.1,3.43-3,3.43-3s12.5-50.33,12.92-57.08c0-.66.1-1.08.1-1.53A5.65,5.65,0,0,0,236.28,177.34Z" />
</svg>