<svg id="Layer_3" data-name="Layer 3" xmlns="http://www.w3.org/2000/svg" xmlns:xlink="http://www.w3.org/1999/xlink"
    viewBox="0 0 399.95 1097.82">
    <defs>
        <style>
            .cls-1,
            .cls-5 {
                fill: none;
                stroke-miterlimit: 10;
            }

            .cls-1 {
                stroke: #fff;
                stroke-width: 1.75px;
            }

            .cls-2 {
                fill: url(#New_Gradient_Swatch_2);
            }

            .cls-3 {
                fill: #f0efef;
                opacity: 0.1;
            }

            .cls-4 {
                fill: url(#New_Gradient_Swatch_2-2);
            }

            .cls-5 {
                stroke-width: 2px;
                stroke: url(#New_Gradient_Swatch_2-3);
            }

            .cls-6 {
                font-size: 167.91px;
                font-family: SegoeUI-Bold, Segoe UI;
                font-weight: 700;
                letter-spacing: 0.05em;
            }

            .cls-6,
            .cls-7 {
                fill: #fff;
            }
        </style>
        <linearGradient id="New_Gradient_Swatch_2" x1="-101.87" y1="850.76" x2="464.45" y2="284.44"
            gradientUnits="userSpaceOnUse">
            <stop offset="0" stop-color="#a13593" />
            <stop offset="0.33" stop-color="#7f4b9c" />
            <stop offset="0.66" stop-color="#595ea9" />
            <stop offset="1" stop-color="#42aee2" />
        </linearGradient>
        <linearGradient id="New_Gradient_Swatch_2-2" x1="85.27" y1="349.96" x2="314.68" y2="120.56"
            xlink:href="#New_Gradient_Swatch_2" />
        <linearGradient id="New_Gradient_Swatch_2-3" x1="84.42" y1="971.89" x2="315.53" y2="740.78"
            xlink:href="#New_Gradient_Swatch_2" />
    </defs>
    <circle class="cls-1" cx="189.31" cy="210.61" r="73.32" />
    <path class="cls-2"
        d="M200,1077.86c-99.66,0-180.74-81.08-180.74-180.74V200.7C19.23,101,100.31,20,200,20v6.82c-95.9,0-173.91,78-173.91,173.92V897.12C26.06,993,104.07,1071,200,1071s173.92-78,173.92-173.92V515.31h6.83V897.12C380.72,996.78,299.64,1077.86,200,1077.86Z" />
    <path class="cls-3"
        d="M200,1054.8h0c-86.72,0-157.68-71-157.68-157.68V200.7C42.29,114,113.25,43,200,43h0A158.13,158.13,0,0,1,357.65,200.7V897.12C357.65,983.84,286.7,1054.8,200,1054.8Z" />
    <path class="cls-4" d="M339.56,325.07V203c0-76.77-62.81-139.58-139.59-139.58S60.38,126.25,60.38,203v122Z" />
    <path class="cls-5" d="M60.38,766.82v122c0,76.77,62.82,139.58,139.59,139.58s139.59-62.81,139.59-139.58v-122Z" />
    <text class="cls-6" transform="translate(149.17 950.36)">1</text>
    <path class="cls-7" d="M168,511.25h-6.64v4.62h6.1v3.44h-6.1v7.31h-4.24V507.8H168Z" />
    <path class="cls-7"
        d="M178.36,526.94a7.2,7.2,0,0,1-5.28-1.88,7.79,7.79,0,0,1,.07-10.32,7.53,7.53,0,0,1,5.4-1.89,7.09,7.09,0,0,1,5.24,1.89,6.67,6.67,0,0,1,1.91,5,7.08,7.08,0,0,1-2,5.29A7.25,7.25,0,0,1,178.36,526.94Zm.11-10.91a2.77,2.77,0,0,0-2.28,1,4.41,4.41,0,0,0-.82,2.86q0,3.87,3.12,3.87t3-4Q181.47,516,178.47,516Z" />
    <path class="cls-7" d="M193.85,526.62H189.7V506.73h4.15Z" />
    <path class="cls-7" d="M202.8,526.62h-4.15V506.73h4.15Z" />
    <path class="cls-7"
        d="M214,526.94a7.24,7.24,0,0,1-5.29-1.88,7.77,7.77,0,0,1,.08-10.32,7.51,7.51,0,0,1,5.39-1.89,7.13,7.13,0,0,1,5.25,1.89,6.7,6.7,0,0,1,1.9,5,7.12,7.12,0,0,1-2,5.29A7.28,7.28,0,0,1,214,526.94Zm.1-10.91a2.77,2.77,0,0,0-2.28,1,4.47,4.47,0,0,0-.82,2.86q0,3.87,3.13,3.87,3,0,3-4Q217.11,516,214.11,516Z" />
    <path class="cls-7"
        d="M244.8,513.18l-3.87,13.44h-4.36l-2-7.88a8.14,8.14,0,0,1-.22-1.71h-.08a10.58,10.58,0,0,1-.26,1.66l-2.13,7.93h-4.3l-3.79-13.44H228l1.85,8.77a10.19,10.19,0,0,1,.2,1.49h.08a8.38,8.38,0,0,1,.23-1.55l2.31-8.71h4l2.07,8.77a11.36,11.36,0,0,1,.19,1.52H239a12.92,12.92,0,0,1,.21-1.52l1.74-8.77Z" />
    <path class="cls-7"
        d="M133.48,554h-.08a3.35,3.35,0,0,1-3.33,2.5,3.65,3.65,0,0,1-2.92-1.31,5.45,5.45,0,0,1-1.11-3.63,7.46,7.46,0,0,1,1.54-4.89,4.63,4.63,0,0,1,3.7-1.88,2.27,2.27,0,0,1,2.45,1.53h.05l.13-1.3h3c-.39,3.73-.59,6.16-.59,7.31s.34,1.84,1,1.84,1.28-.47,1.73-1.39a8.24,8.24,0,0,0,.68-3.64,6.84,6.84,0,0,0-2-5,7.35,7.35,0,0,0-5.46-2,8.2,8.2,0,0,0-6.23,2.62,8.9,8.9,0,0,0-2.49,6.38,7.56,7.56,0,0,0,2.2,5.75,8.39,8.39,0,0,0,6.06,2.09,12.84,12.84,0,0,0,5.41-1.12v2.5a14.81,14.81,0,0,1-5.77,1,11.22,11.22,0,0,1-7.88-2.78,9.6,9.6,0,0,1-3-7.45,10.93,10.93,0,0,1,3.24-8,12.58,12.58,0,0,1,16-.73,8.4,8.4,0,0,1,2.92,6.66,8,8,0,0,1-1.79,5.45,5.61,5.61,0,0,1-4.42,2,3.15,3.15,0,0,1-2.11-.69A2.48,2.48,0,0,1,133.48,554Zm-1.75-6.93a2.2,2.2,0,0,0-1.92,1.35,6.36,6.36,0,0,0-.74,3.11,3.29,3.29,0,0,0,.51,2,1.52,1.52,0,0,0,1.3.7,2.15,2.15,0,0,0,1.94-1.32,7.44,7.44,0,0,0,.71-3.54,2.56,2.56,0,0,0-.49-1.66A1.6,1.6,0,0,0,131.73,547.06Z" />
    <path class="cls-7"
        d="M163.52,540,157,558.85h-4.8L145.84,540h4.57l3.92,13.09a9.92,9.92,0,0,1,.38,1.88h.08a10.39,10.39,0,0,1,.4-1.93l3.9-13Z" />
    <path class="cls-7"
        d="M177.87,558.85h-3.93v-1.93h-.05a4.36,4.36,0,0,1-4,2.26,4.2,4.2,0,0,1-3.08-1.11,4,4,0,0,1-1.12-3c0-2.61,1.55-4.12,4.63-4.52l3.65-.48c0-1.47-.8-2.21-2.39-2.21a8.15,8.15,0,0,0-4.56,1.43v-3.12a10.08,10.08,0,0,1,2.36-.79,13,13,0,0,1,2.74-.34q5.74,0,5.75,5.74ZM174,553.4v-.91l-2.44.32c-1.35.17-2,.78-2,1.82a1.5,1.5,0,0,0,.49,1.16,1.9,1.9,0,0,0,1.33.45,2.45,2.45,0,0,0,1.9-.8A2.92,2.92,0,0,0,174,553.4Z" />
    <path class="cls-7"
        d="M195.23,558.85h-4.14v-2H191a4.7,4.7,0,0,1-4.11,2.37q-4.66,0-4.67-5.65v-8.11h4.13v7.74c0,1.9.76,2.85,2.26,2.85a2.22,2.22,0,0,0,1.78-.78,3.13,3.13,0,0,0,.67-2.12v-7.69h4.14Z" />
    <path class="cls-7" d="M204.18,558.85H200V539h4.15Z" />
    <path class="cls-7"
        d="M217.1,558.7a6.17,6.17,0,0,1-2.77.48q-4.38,0-4.38-4.55v-6.15h-2.17v-3.06H210v-2.9l4.14-1.18v4.08h3v3.06h-3v5.43c0,1.4.55,2.1,1.66,2.1a2.83,2.83,0,0,0,1.35-.38Z" />
    <path class="cls-7"
        d="M233.54,545.42l-5.45,14.51q-2,5.24-5.93,5.23a7.53,7.53,0,0,1-2.48-.34v-3.3a3.51,3.51,0,0,0,1.79.48,2.25,2.25,0,0,0,2.24-1.51l.7-1.66L219,545.42h4.59l2.5,8.17a10.71,10.71,0,0,1,.37,1.8h.05a12.61,12.61,0,0,1,.44-1.77l2.53-8.2Z" />
    <path class="cls-7"
        d="M240.72,557.29h-.05V565h-4.14V545.42h4.14v2h.05a4.91,4.91,0,0,1,4.32-2.35,4.85,4.85,0,0,1,4,1.79,7.64,7.64,0,0,1,1.43,4.88,8.3,8.3,0,0,1-1.66,5.39,5.44,5.44,0,0,1-4.42,2A4.18,4.18,0,0,1,240.72,557.29Zm-.11-5.51v1.08a3.42,3.42,0,0,0,.73,2.27,2.41,2.41,0,0,0,1.93.88,2.56,2.56,0,0,0,2.2-1.1,5.28,5.28,0,0,0,.78-3.1q0-3.54-2.76-3.54a2.59,2.59,0,0,0-2.08,1A3.87,3.87,0,0,0,240.61,551.78Z" />
    <path class="cls-7"
        d="M263.27,549.16a3.65,3.65,0,0,0-1.75-.41,2.51,2.51,0,0,0-2.11,1,4.31,4.31,0,0,0-.76,2.7v6.41H254.5V545.42h4.15v2.49h.05a3.59,3.59,0,0,1,3.54-2.73,2.81,2.81,0,0,1,1,.16Z" />
    <path class="cls-7"
        d="M272.91,559.18a7.24,7.24,0,0,1-5.28-1.88A7.79,7.79,0,0,1,267.7,547a7.53,7.53,0,0,1,5.4-1.89,7.12,7.12,0,0,1,5.24,1.89,6.66,6.66,0,0,1,1.9,5,7.09,7.09,0,0,1-2,5.29A7.29,7.29,0,0,1,272.91,559.18Zm.11-10.91a2.77,2.77,0,0,0-2.29,1,4.45,4.45,0,0,0-.81,2.86q0,3.87,3.12,3.87t3-4Q276,548.27,273,548.27Z" />
    <path class="cls-7"
        d="M136.69,591.42a7.24,7.24,0,0,1-5.28-1.88,7.77,7.77,0,0,1,.07-10.33,7.56,7.56,0,0,1,5.39-1.88,7.16,7.16,0,0,1,5.25,1.88,6.74,6.74,0,0,1,1.9,5,7.11,7.11,0,0,1-2,5.29A7.32,7.32,0,0,1,136.69,591.42Zm.1-10.91a2.74,2.74,0,0,0-2.28,1,4.45,4.45,0,0,0-.81,2.86q0,3.87,3.12,3.87c2,0,3-1.33,3-4S138.8,580.51,136.79,580.51Z" />
    <path class="cls-7"
        d="M161,591.09h-4.13v-7.46c0-2.08-.75-3.12-2.23-3.12a2.2,2.2,0,0,0-1.77.82,3.12,3.12,0,0,0-.7,2.1v7.66H148V577.66h4.14v2.12h.05a4.76,4.76,0,0,1,4.32-2.45q4.46,0,4.46,5.54Z" />
    <path class="cls-7" d="M187.94,575.73h-5.37v15.36h-4.25V575.73H173v-3.45h15Z" />
    <path class="cls-7"
        d="M210.83,577.66,207,591.09h-4.35l-2-7.87a8.22,8.22,0,0,1-.23-1.72h-.07a9.54,9.54,0,0,1-.27,1.67l-2.12,7.92h-4.3l-3.79-13.43h4.22l1.85,8.76a12,12,0,0,1,.2,1.5h.07a9.23,9.23,0,0,1,.24-1.55l2.31-8.71h3.95l2.07,8.76a15.28,15.28,0,0,1,.18,1.52h.1a13.53,13.53,0,0,1,.21-1.52l1.74-8.76Z" />
    <path class="cls-7"
        d="M216.22,575.53a2.41,2.41,0,0,1-1.72-.62,2,2,0,0,1-.67-1.53,1.92,1.92,0,0,1,.67-1.52,2.53,2.53,0,0,1,1.72-.59,2.49,2.49,0,0,1,1.72.59,2,2,0,0,1,.67,1.52,2,2,0,0,1-.67,1.55A2.45,2.45,0,0,1,216.22,575.53Zm2,15.56h-4.14V577.66h4.14Z" />
    <path class="cls-7"
        d="M231.19,590.93a6,6,0,0,1-2.77.49q-4.38,0-4.38-4.55v-6.15h-2.18v-3.06H224v-2.9l4.13-1.18v4.08h3v3.06h-3v5.43c0,1.4.56,2.1,1.67,2.1a2.83,2.83,0,0,0,1.35-.38Z" />
    <path class="cls-7"
        d="M243,590.93a6,6,0,0,1-2.77.49q-4.38,0-4.38-4.55v-6.15h-2.18v-3.06h2.18v-2.9l4.13-1.18v4.08h3v3.06h-3v5.43c0,1.4.56,2.1,1.67,2.1a2.83,2.83,0,0,0,1.35-.38Z" />
    <path class="cls-7"
        d="M258.68,585.56h-8.76q.21,2.93,3.68,2.92a7.2,7.2,0,0,0,3.9-1.05v3a10.18,10.18,0,0,1-4.84,1,6.25,6.25,0,0,1-6.85-6.84,7.19,7.19,0,0,1,1.94-5.29,6.46,6.46,0,0,1,4.78-2,5.83,5.83,0,0,1,4.54,1.75,6.71,6.71,0,0,1,1.61,4.73ZM254.84,583q0-2.88-2.34-2.88a2.21,2.21,0,0,0-1.72.82,3.76,3.76,0,0,0-.89,2.06Z" />
    <path class="cls-7"
        d="M271.23,581.4a3.65,3.65,0,0,0-1.75-.41,2.51,2.51,0,0,0-2.11,1,4.31,4.31,0,0,0-.76,2.7v6.41h-4.15V577.66h4.15v2.49h.05a3.59,3.59,0,0,1,3.54-2.73,2.81,2.81,0,0,1,1,.16Z" />
    <circle class="cls-1" cx="199.98" cy="205.57" r="73.32" />
    <path class="cls-7"
        d="M185.16,247.8c35.81,0,55.4-29.67,55.4-55.4q0-1.26-.06-2.52a39.44,39.44,0,0,0,9.71-10.08A38.82,38.82,0,0,1,239,182.87a19.53,19.53,0,0,0,8.56-10.77,38.84,38.84,0,0,1-12.36,4.72,19.48,19.48,0,0,0-33.68,13.32,19.68,19.68,0,0,0,.5,4.44,55.26,55.26,0,0,1-40.13-20.34,19.47,19.47,0,0,0,6,26,19.32,19.32,0,0,1-8.82-2.44V198a19.48,19.48,0,0,0,15.62,19.09,19.8,19.8,0,0,1-5.14.68,19.24,19.24,0,0,1-3.66-.35A19.5,19.5,0,0,0,184.14,231,39.07,39.07,0,0,1,160,239.32a39.47,39.47,0,0,1-4.64-.27,55.1,55.1,0,0,0,29.84,8.75" />
</svg>