<svg id="Layer_3" data-name="Layer 3" xmlns="http://www.w3.org/2000/svg" xmlns:xlink="http://www.w3.org/1999/xlink"
    viewBox="0 0 399.95 1097.82">
    <defs>
        <style>
            .cls-1 {
                fill: url(#New_Gradient_Swatch_1);
            }

            .cls-2 {
                fill: #f0f0f0;
                opacity: 0.1;
            }

            .cls-3 {
                fill: url(#New_Gradient_Swatch_1-2);
            }

            .cls-4,
            .cls-7 {
                fill: none;
                stroke-miterlimit: 10;
            }

            .cls-4 {
                stroke-width: 2px;
                stroke: url(#New_Gradient_Swatch_1-3);
            }

            .cls-5 {
                font-size: 167.15px;
                letter-spacing: 0.05em;
            }

            .cls-5,
            .cls-6,
            .cls-8 {
                fill: #fff;
            }

            .cls-5,
            .cls-6 {
                font-family: SegoeUI-Bold, Segoe UI;
                font-weight: 700;
            }

            .cls-6 {
                font-size: 26.74px;
                letter-spacing: 0.05em;
            }

            .cls-7 {
                stroke: #fff;
                stroke-width: 1.75px;
            }
        </style>
        <linearGradient id="New_Gradient_Swatch_1" x1="-93.23" y1="849.85" x2="470.53" y2="286.09"
            gradientUnits="userSpaceOnUse">
            <stop offset="0" stop-color="#a42e9a" />
            <stop offset="0.33" stop-color="#902ccc" />
            <stop offset="0.66" stop-color="#5951f6" />
            <stop offset="1" stop-color="#1db3f9" />
        </linearGradient>
        <linearGradient id="New_Gradient_Swatch_1-2" x1="93.07" y1="351.32" x2="321.43" y2="122.95"
            xlink:href="#New_Gradient_Swatch_1" />
        <linearGradient id="New_Gradient_Swatch_1-3" x1="92.21" y1="970.44" x2="322.28" y2="740.37"
            xlink:href="#New_Gradient_Swatch_1" />
    </defs>
    <path class="cls-1"
        d="M207.25,1075.93C108,1075.93,27.33,995.21,27.33,896V202.74c0-99.21,80.71-179.93,179.92-179.93V29.6c-95.47,0-173.13,77.67-173.13,173.14V896c0,95.47,77.66,173.14,173.13,173.14S380.38,991.47,380.38,896V515.92h6.79V896C387.17,995.21,306.46,1075.93,207.25,1075.93Z" />
    <path class="cls-2"
        d="M207.25,1053h0c-86.33,0-157-70.64-157-157V202.74c0-86.33,70.64-157,157-157h0a157.43,157.43,0,0,1,157,157V896C364.22,982.33,293.58,1053,207.25,1053Z" />
    <path class="cls-3" d="M346.21,326.54V205.05c0-76.43-62.53-139-139-139s-139,62.53-139,139V326.54Z" />
    <path class="cls-4" d="M68.29,766.29v121.5c0,76.42,62.53,139,139,139s139-62.53,139-139V766.29Z" /><text
        class="cls-5" transform="translate(158.35 949)">3</text><text class="cls-6"
        transform="translate(94.7 527.18)">Join our Discord<tspan x="33.73" y="32.09">discord.gg/</tspan>
        <tspan x="43.07" y="64.19">EXuUuxn5</tspan>
    </text>
    <circle class="cls-7" cx="207.25" cy="207.58" r="72.99" />
    <path class="cls-8"
        d="M241,173.89a80.65,80.65,0,0,0-19.81-6.15.3.3,0,0,0-.32.16,53.6,53.6,0,0,0-2.47,5.06,74.09,74.09,0,0,0-22.25,0,50.52,50.52,0,0,0-2.5-5.06.32.32,0,0,0-.32-.16,80.22,80.22,0,0,0-19.81,6.15.28.28,0,0,0-.13.11c-12.62,18.85-16.07,37.24-14.38,55.39a.34.34,0,0,0,.13.23,80.79,80.79,0,0,0,24.3,12.29.32.32,0,0,0,.34-.12,57.62,57.62,0,0,0,5-8.08.3.3,0,0,0-.17-.43,54.47,54.47,0,0,1-7.59-3.62.31.31,0,0,1,0-.52c.51-.38,1-.78,1.51-1.18a.29.29,0,0,1,.31,0,57.57,57.57,0,0,0,48.91,0,.29.29,0,0,1,.32,0c.49.4,1,.8,1.51,1.18a.31.31,0,0,1,0,.52,49.9,49.9,0,0,1-7.6,3.61.31.31,0,0,0-.16.44,65.71,65.71,0,0,0,5,8.08.33.33,0,0,0,.34.12,80.4,80.4,0,0,0,24.34-12.29.29.29,0,0,0,.13-.22c2-21-3.4-39.23-14.39-55.4A.25.25,0,0,0,241,173.89Zm-49.87,44.45c-4.79,0-8.75-4.4-8.75-9.81s3.88-9.81,8.75-9.81,8.82,4.44,8.75,9.81S196,218.34,191.11,218.34Zm32.34,0c-4.8,0-8.75-4.4-8.75-9.81s3.88-9.81,8.75-9.81,8.82,4.44,8.74,9.81S228.36,218.34,223.45,218.34Z" />
</svg>