<svg id="Layer_1" data-name="Layer 1" xmlns="http://www.w3.org/2000/svg" xmlns:xlink="http://www.w3.org/1999/xlink"
    viewBox="0 0 84.62 86.29">
    <defs>
        <style>
            .cls-1 {
                fill: url(#New_Gradient_Swatch_1);
            }
        </style>
        <linearGradient id="New_Gradient_Swatch_1" x1="2.14" y1="42.15" x2="82.48" y2="42.15"
            gradientUnits="userSpaceOnUse">
            <stop offset="0" stop-color="#a23694" />
            <stop offset="0.33" stop-color="#804b9e" />
            <stop offset="0.66" stop-color="#5a5faa" />
            <stop offset="1" stop-color="#43afe3" />
        </linearGradient>
    </defs>
    <path class="cls-1"
        d="M70.51,13.55A40.17,40.17,0,0,0,11.75,68.22a1.44,1.44,0,1,0,2.19-1.87,37.28,37.28,0,1,1,28.64,13.1l-.15,0-.15,0c-12.1,0-19-3.78-20-10.94a15.73,15.73,0,0,1,.26-5.34,42.32,42.32,0,0,0,10.37,1.89c.62,0,1.22,0,1.82,0,7.74,0,14.08-2.64,18.4-7.68,9.52-11.1,13.19-27.35,11.81-37a1.44,1.44,0,0,0-2.22-1c-3.61,2.41-8.66,2.95-14.5,3.59-7.2.78-15.36,1.66-22.78,6.44-7.9,5.09-10,11.31-10.34,15.63a18.42,18.42,0,0,0,1.2,8.32,1.43,1.43,0,0,0,2.62-1.17,15.69,15.69,0,0,1-1-6.91c.44-5.35,3.48-9.88,9-13.46,6.85-4.41,14.65-5.26,21.54-6,5.05-.55,9.87-1.07,13.77-2.92C62.83,32.24,59,46.23,51,55.57c-8.62,10.06-23.87,6-27.66,4.83,3.57-10.58,15-22.34,26.27-25.47a1.44,1.44,0,0,0-.77-2.77C33,36.55,17.66,55.77,19.44,68.9a13.37,13.37,0,0,0,6.36,9.73c3.89,2.45,9.43,3.69,16.48,3.69h.32A40.16,40.16,0,0,0,70.51,13.55Z" />
</svg>