<svg id="Layer_1" data-name="Layer 1" xmlns="http://www.w3.org/2000/svg" xmlns:xlink="http://www.w3.org/1999/xlink"
    viewBox="0 0 84.62 86.29">
    <defs>
        <style>
            .cls-1 {
                fill: url(#New_Gradient_Swatch_1);
            }

            .cls-2 {
                fill: url(#New_Gradient_Swatch_1-2);
            }

            .cls-3 {
                fill: url(#New_Gradient_Swatch_1-3);
            }

            .cls-4 {
                fill: url(#New_Gradient_Swatch_1-4);
            }
        </style>
        <linearGradient id="New_Gradient_Swatch_1" x1="0.93" y1="59.5" x2="63.93" y2="23.13"
            gradientUnits="userSpaceOnUse">
            <stop offset="0" stop-color="#a23694" />
            <stop offset="0.33" stop-color="#804b9e" />
            <stop offset="0.66" stop-color="#5a5faa" />
            <stop offset="1" stop-color="#43afe3" />
        </linearGradient>
        <linearGradient id="New_Gradient_Swatch_1-2" x1="30.28" y1="57.83" x2="44.89" y2="49.39"
            xlink:href="#New_Gradient_Swatch_1" />
        <linearGradient id="New_Gradient_Swatch_1-3" x1="49.39" y1="74.77" x2="77.45" y2="58.57"
            xlink:href="#New_Gradient_Swatch_1" />
        <linearGradient id="New_Gradient_Swatch_1-4" x1="56.85" y1="72.13" x2="70.27" y2="64.38"
            xlink:href="#New_Gradient_Swatch_1" />
    </defs>
    <path class="cls-1"
        d="M45.6,71.86H13a3,3,0,0,1-2.73-3V38.37A2.52,2.52,0,0,1,13,35.92H61.75a2.55,2.55,0,0,1,2.75,2.45v11a1.53,1.53,0,0,0,3,0v-11a5.54,5.54,0,0,0-5.8-5.49h-.9V24a23.46,23.46,0,0,0-46.91,0v8.84H13a5.52,5.52,0,0,0-5.78,5.49V68.82A6.09,6.09,0,0,0,13,74.91H45.6a1.53,1.53,0,0,0,0-3Zm4.28-39h-25V24c0-7.28,5.48-13,12.48-13s12.49,5.7,12.49,13ZM17,24A20.41,20.41,0,0,1,57.8,24v8.84H52.93V24A15.81,15.81,0,0,0,37.39,8,15.81,15.81,0,0,0,21.86,24v8.84H17Z" />
    <path class="cls-2"
        d="M34.33,63.33h6.09A1.52,1.52,0,0,0,42,61.83V54.9a7.05,7.05,0,0,0,2.2-5,6.77,6.77,0,1,0-13.54,0,7,7,0,0,0,2.21,5v6.93A1.49,1.49,0,0,0,34.33,63.33Zm3.05-17.12a3.73,3.73,0,0,1,3.73,3.73A4.06,4.06,0,0,1,39.49,53a1.51,1.51,0,0,0-.57,1.2v6.08H35.87V54.21a1.53,1.53,0,0,0-.59-1.2,4.1,4.1,0,0,1-1.62-3.07A3.73,3.73,0,0,1,37.38,46.21Z" />
    <path class="cls-3"
        d="M76.15,56.48a1.51,1.51,0,0,0-1.22-.36,14.36,14.36,0,0,1-6.38-.81,12.4,12.4,0,0,1-4.95-3.54,1.56,1.56,0,0,0-1.21-.62h0a1.55,1.55,0,0,0-1.2.61,12.6,12.6,0,0,1-5,3.55,14.19,14.19,0,0,1-6.38.81,1.52,1.52,0,0,0-1.73,1.51v11.7c0,9.85,13.11,16,13.67,16.28a1.57,1.57,0,0,0,.64.14,1.61,1.61,0,0,0,.64-.14c.56-.26,13.68-6.43,13.68-16.28V57.63A1.54,1.54,0,0,0,76.15,56.48ZM73.64,69.33c0,6.82-8.8,11.9-11.27,13.19C59.89,81.23,51.1,76.17,51.1,69.33V59.25a18,18,0,0,0,6.17-1.09,16.14,16.14,0,0,0,5.11-3.23,15.72,15.72,0,0,0,5.08,3.23,17.24,17.24,0,0,0,6.18,1.09Z" />
    <path class="cls-4"
        d="M57.77,67.77A1.52,1.52,0,0,0,55.7,70l4.4,4.08a1.48,1.48,0,0,0,1,.41h.06A1.51,1.51,0,0,0,62.25,74l7.6-8.21a1.53,1.53,0,0,0-2.24-2.07l-6.56,7.09Z" />
</svg>