<svg id="Layer_1" data-name="Layer 1" xmlns="http://www.w3.org/2000/svg" xmlns:xlink="http://www.w3.org/1999/xlink"
    viewBox="0 0 84.62 86.29">
    <defs>
        <style>
            .cls-1 {
                fill: url(#New_Gradient_Swatch_1);
            }
        </style>
        <linearGradient id="New_Gradient_Swatch_1" y1="43.15" x2="84.62" y2="43.15" gradientUnits="userSpaceOnUse">
            <stop offset="0" stop-color="#a23694" />
            <stop offset="0.33" stop-color="#804b9e" />
            <stop offset="0.66" stop-color="#5a5faa" />
            <stop offset="1" stop-color="#43afe3" />
        </linearGradient>
    </defs>
    <path class="cls-1"
        d="M27.06,73.48A45.69,45.69,0,0,1,20,72.79,21.49,21.49,0,0,1,7.3,66,17.29,17.29,0,0,1,2.84,52.93C3.7,40.77,15.23,28.05,21,22.41a3.68,3.68,0,0,0,.58.05H35.64A3.22,3.22,0,0,0,37,22.15C42.89,28,54.18,40.88,54.7,53a20.14,20.14,0,0,1,0,2.06c.39,0,.78,0,1.18,0h.22c.47,0,.94,0,1.39,0,0-.72.05-1.46,0-2.2C56.91,39.54,44.93,26,38.85,20a3.49,3.49,0,0,0,.11-.86v-1a3.33,3.33,0,0,0-1.68-2.89l.3-.52a27,27,0,0,1,4.17-4.9c.51-.51,1-1,1.48-1.51a1.5,1.5,0,0,0,.66-1.23h0a3.15,3.15,0,0,0-1.34-2.79c-1.44-1-3.69-.7-5.28-.29a4.73,4.73,0,0,0-4-3.94,7.16,7.16,0,0,0-6.94,3.36C20.48.73,16.47,3.68,15.1,5.77a1.39,1.39,0,0,0,.13,1.71A36.67,36.67,0,0,1,20.32,15a3.34,3.34,0,0,0-2.08,3.09v1a3.22,3.22,0,0,0,.42,1.61c-6.13,6-17.68,19-18.6,32A20,20,0,0,0,5.22,67.89a24.31,24.31,0,0,0,14.31,7.65,49,49,0,0,0,7.53.73,82.28,82.28,0,0,0,8.69-.42,27.52,27.52,0,0,0,4.65-.91V72a24.45,24.45,0,0,1-4.95,1A79.19,79.19,0,0,1,27.06,73.48Zm-.9-67a1.4,1.4,0,0,0,1.15.11,1.44,1.44,0,0,0,.85-.79c.05-.14,1.44-3.41,4.71-3,1.86.24,1.82,2.68,1.81,3A1.4,1.4,0,0,0,35.26,7a1.41,1.41,0,0,0,1.32.16c1.57-.61,3.76-1,4.39-.56l0,0c-.39.41-.8.82-1.22,1.24a28.58,28.58,0,0,0-4.58,5.43c-.32.52-.6,1-.85,1.52h-11a42.67,42.67,0,0,0-5.21-8.27C19.27,5.47,21.89,4,26.16,6.49ZM21,18.13a.54.54,0,0,1,.53-.54H35.64a.5.5,0,0,1,.44.24.49.49,0,0,1,.1.3v1a.58.58,0,0,1,0,.19.54.54,0,0,1-.5.35H21.56a.54.54,0,0,1-.53-.54v-1Zm-13,35.18a12,12,0,0,0,3.16,9.24,1.4,1.4,0,0,1-.12,2,1.38,1.38,0,0,1-.93.35,1.4,1.4,0,0,1-1-.47A14.7,14.7,0,0,1,5.29,53.12a1.39,1.39,0,1,1,2.78.19ZM20.45,69a1.39,1.39,0,0,1-1.35,1.07,1.24,1.24,0,0,1-.33,0,19.39,19.39,0,0,1-6.44-2.84,1.39,1.39,0,1,1,1.57-2.3,16.71,16.71,0,0,0,5.53,2.43A1.39,1.39,0,0,1,20.45,69ZM33.91,40.93V38c0-.59-1-1.28-2.33-1.28H26.7c-1.3,0-2.32.69-2.32,1.28v2.75c0,1.59,1.5,3.1,3.75,3.76l2.82.83c3.49,1,5.75,3.56,5.75,6.44V54.1c0,2.28-2.25,4.07-5.12,4.07h-.89V62H27.9V58.17h-2c-2.87,0-5.11-1.79-5.11-4.07V50.94h2.79V54.1c0,.59,1,1.28,2.32,1.28h5.72c1.31,0,2.33-.69,2.33-1.28V51.76c0-1.59-1.51-3.1-3.75-3.76l-2.82-.84c-3.49-1-5.75-3.55-5.75-6.43V38c0-2.28,2.25-4.07,5.11-4.07h1.2v-3.8h2.79v3.8h.89c2.87,0,5.12,1.79,5.12,4.07v3ZM72,35c-7.1,0-12.66,3.15-12.66,7.17V55.3l.62.1c.26.05.52.09.77.15.48.1.94.22,1.39.35l.09,0a1.89,1.89,0,0,1-.09-.52V53.32A17.65,17.65,0,0,0,72,56a17.61,17.61,0,0,0,9.87-2.63V55.4c0,2.07-4.22,4.39-9.87,4.39a19.46,19.46,0,0,1-3.43-.3,9.55,9.55,0,0,1,2.09,3c.44,0,.89,0,1.34,0a17.53,17.53,0,0,0,9.87-2.64V62c0,2.07-4.22,4.38-9.87,4.38h-.64v2.79H72a17.53,17.53,0,0,0,9.87-2.64V68.5c0,2.07-4.22,4.39-9.87,4.39h-.64v2.79H72c7.1,0,12.66-3.15,12.66-7.18V42.15C84.62,38.13,79.06,35,72,35Zm-9.28,5.78c1.36-1.6,4.89-3,9.28-3s7.92,1.39,9.27,3a2.19,2.19,0,0,1,.6,1.39h0a2.21,2.21,0,0,1-.6,1.4c-1.35,1.59-4.88,3-9.27,3s-7.92-1.4-9.28-3a2.27,2.27,0,0,1-.6-1.4h0A2.24,2.24,0,0,1,62.68,40.76ZM72,53.16c-5.65,0-9.88-2.31-9.88-4.38V46.69A17.57,17.57,0,0,0,72,49.33a17.53,17.53,0,0,0,9.87-2.64v2.09C81.83,50.85,77.61,53.16,72,53.16ZM66.84,62a11.91,11.91,0,0,0-4.76-2.65c-.35-.11-.72-.21-1.1-.3L60.69,59c-.45-.1-.92-.19-1.39-.26A18.69,18.69,0,0,0,57,58.47c-.38,0-.76,0-1.15,0h-.27c-.5,0-1,0-1.46.06-5.67.43-10,2.89-10.81,6.1a1.35,1.35,0,0,0-.12.57v14c0,4,5.56,7.17,12.66,7.17s12.67-3.15,12.67-7.17v-14a1.36,1.36,0,0,0-.13-.57A5.44,5.44,0,0,0,66.84,62Zm-1.1,17.14c0,2.07-4.22,4.38-9.88,4.38S46,81.19,46,79.12V77.18a17.61,17.61,0,0,0,9.87,2.63,17.62,17.62,0,0,0,9.88-2.63Zm0-6.48a1.87,1.87,0,0,1-.13.64,3.18,3.18,0,0,1-.87,1.15C63.17,75.85,59.88,77,55.86,77,50.21,77,46,74.71,46,72.64V70.18c.2.14.42.28.65.42a12.56,12.56,0,0,0,1.42.72,16.51,16.51,0,0,0,2.6.86,1.39,1.39,0,0,0,1.69-1l0-.17a1.41,1.41,0,0,0-1.05-1.52c-.25-.06-.5-.12-.73-.2a13.63,13.63,0,0,1-1.49-.54,10.14,10.14,0,0,1-1.32-.7,4.67,4.67,0,0,1-1.52-1.47,1.89,1.89,0,0,1-.28-1,1.72,1.72,0,0,1,.06-.44,3,3,0,0,1,1-1.39,11.83,11.83,0,0,1,6-2.35c.51-.08,1.05-.13,1.61-.17q.59,0,1.2,0h.31a20.31,20.31,0,0,1,3.13.29c.48.09,1,.2,1.39.31l.65.2c.25.08.5.16.74.26h0a8.61,8.61,0,0,1,2.59,1.48,3,3,0,0,1,1,1.39,1,1,0,0,1,0,.17,1.24,1.24,0,0,1,0,.27,1.81,1.81,0,0,1-.29,1,4,4,0,0,1-1.16,1.21,9,9,0,0,1-2.15,1.15,13.82,13.82,0,0,1-1.33.44c-.43.12-.88.22-1.35.31a19.33,19.33,0,0,1-3.6.33,1.39,1.39,0,0,0-1.38,1.23.92.92,0,0,0,0,.16,1.4,1.4,0,0,0,1.39,1.4A21.5,21.5,0,0,0,61,72.18c.55-.13,1.07-.29,1.57-.46a14.72,14.72,0,0,0,1.55-.64,11.07,11.07,0,0,0,1.59-.93v2.49Z" />
</svg>