<svg id="Layer_1" data-name="Layer 1" xmlns="http://www.w3.org/2000/svg" xmlns:xlink="http://www.w3.org/1999/xlink"
    viewBox="0 0 1366 768">
    <defs>
        <style>
            .cls-1 {
                fill: none;
            }

            .cls-2 {
                fill: #fff;
            }

            .cls-3 {
                clip-path: url(#clip-path);
            }

            .cls-4 {
                clip-path: url(#clip-path-2);
            }

            .cls-5 {
                fill: url(#linear-gradient);
            }
        </style>
        <clipPath id="clip-path">
            <rect class="cls-1" width="1366" height="768" />
        </clipPath>
        <clipPath id="clip-path-2">
            <path class="cls-1"
                d="M604.56,411.08a5.53,5.53,0,1,0,7.56-2,5.47,5.47,0,0,0-2.77-.75,5.53,5.53,0,0,0-4.79,2.77m149.05-2a5.51,5.51,0,1,0,2.76-.75,5.44,5.44,0,0,0-2.76.75M530.3,286.52a5.54,5.54,0,1,0,5.54-5.54,5.55,5.55,0,0,0-5.54,5.54m294.05,0a5.54,5.54,0,1,0,5.54-5.54,5.55,5.55,0,0,0-5.54,5.54M707.89,259.06a6.12,6.12,0,0,0-6.12,6.11,6,6,0,0,0,1.61,4.1L691.11,289a6.08,6.08,0,0,0-6.2,1.27l-8-5.15a5.64,5.64,0,0,0,.16-1.3,6.12,6.12,0,1,0-10.4,4.32l-7.25,13.71a6,6,0,0,0-1.4-.18,6.18,6.18,0,1,0,4.37,1.87l7.28-13.77a5.07,5.07,0,0,0,1.29.16,6.06,6.06,0,0,0,4.3-1.8l7.87,5.08a6.11,6.11,0,1,0,12,1.61,6.09,6.09,0,0,0-1.28-3.79l12.41-19.93a5.8,5.8,0,0,0,1.61.23,6.12,6.12,0,0,0,0-12.23ZM645.08,324.3A53.43,53.43,0,1,1,682.86,340a53.26,53.26,0,0,1-37.78-15.65m29.33-151.12v43.5A70.46,70.46,0,0,0,626.6,244.3l-37.66-21.75a8.44,8.44,0,1,0-8.46,14.6l37.68,21.75a70.45,70.45,0,0,0,0,55.24l-37.68,21.75a8.44,8.44,0,1,0,8.46,14.6l37.66-21.75a70.46,70.46,0,0,0,47.81,27.62v43.5a8.46,8.46,0,0,0,16.91,0v-43.5a70.32,70.32,0,0,0,47.8-27.62l37.67,21.75a8.43,8.43,0,1,0,8.45-14.6l-37.67-21.75a70.56,70.56,0,0,0,0-55.24l37.67-21.75a8.43,8.43,0,1,0-8.45-14.6L739.12,244.3a70.32,70.32,0,0,0-47.8-27.62v-43.5a8.46,8.46,0,0,0-16.91,0M606.58,154.4a5.54,5.54,0,1,0,2.76-.74,5.45,5.45,0,0,0-2.76.74m145,2a5.55,5.55,0,1,0,4.8-2.76,5.53,5.53,0,0,0-4.8,2.76M564.67,168.33A167,167,0,1,1,523.6,337.39h10.55a9.15,9.15,0,0,0,0-18.29H518.89a169.15,169.15,0,0,1-1.19-58.4h16.45a9.14,9.14,0,0,0,0-18.28H521.6a166.88,166.88,0,0,1,43.07-74.09M551.74,155.4a185.25,185.25,0,0,0-49,87H485a9.14,9.14,0,1,0,0,18.28h14.2a188,188,0,0,0-1.78,25.82,186,186,0,0,0,2.86,32.58H485a9.15,9.15,0,0,0,0,18.29h19.48a185.49,185.49,0,1,0,47.25-182" />
        </clipPath>
        <linearGradient id="linear-gradient" y1="768" x2="1" y2="768"
            gradientTransform="matrix(-545.99, 0, 0, 545.99, 944.98, -419034.96)" gradientUnits="userSpaceOnUse">
            <stop offset="0" stop-color="#a42e9a" />
            <stop offset="0.33" stop-color="#902ccc" />
            <stop offset="0.66" stop-color="#5951f6" />
            <stop offset="1" stop-color="#1db3f9" />
        </linearGradient>
    </defs>
    <polygon class="cls-2"
        points="530.48 543.03 553.6 543.03 517.67 639.38 494.55 639.38 458.35 543.03 481.47 543.03 506.11 611.99 530.48 543.03" />
    <g class="cls-3">
        <path class="cls-2"
            d="M613.21,568.49h20v70.89H613.76v-11c-4.27,8-14.46,12.94-25.33,12.94-21.89,0-35-16.38-35-36.2,0-24.5,17.48-38.54,36.47-38.54,8.81,0,17.9,3.3,23.27,10Zm.14,35.24c0-12.39-7.58-21.75-19.69-21.75-11.84,0-20,9.64-20,21.75,0,12.94,7.71,22.16,20.1,22.16,11.84,0,19.55-9.5,19.55-22.16" />
        <path class="cls-2"
            d="M702.13,568.49h20v70.89H702.41v-6.33c-6.2,5.64-13.63,8.26-22.3,8.26-19,0-27.67-10.87-27.67-28.22v-44.6h20v40.33c0,10.47,4.54,16.52,14.59,16.52,7.43,0,15.14-5,15.14-17.07Z" />
        <rect class="cls-2" x="742.19" y="538.21" width="19.96" height="101.17" />
        <path class="cls-2"
            d="M824.23,623v16.38a67.49,67.49,0,0,1-15.14,1.93c-17.75,0-23.54-10.6-23.54-21.61V584.32H774V568.49h11.56v-19h20v19H824.1v15.83H805.51V617c0,5.09,2.07,8.39,7.57,8.39,3.86,0,6.61-.82,11.15-2.34" />
        <polygon class="cls-2"
            points="886.32 568.49 907.65 568.49 867.87 666.91 846.81 666.91 859.61 634.29 830.29 568.49 851.49 568.49 870.08 613.92 886.32 568.49" />
    </g>
    <g class="cls-4">
        <rect class="cls-5" x="402.13" y="16.81" width="539.9" height="539.42"
            transform="translate(-10.03 548.26) rotate(-44.08)" />
    </g>
</svg>